<svg width="41" height="41" viewBox="0 0 41 41" fill="none" xmlns="http://www.w3.org/2000/svg">
<g clip-path="url(#clip0)">
<path d="M20.5 0.854156C9.17375 0.854156 0 9.87416 0 20.9988C0 29.9009 5.87325 37.4501 14.0169 40.1117C15.0419 40.3013 15.4177 39.6777 15.4177 39.143C15.4177 38.6647 15.4006 37.3971 15.3921 35.7178C9.68967 36.9325 8.487 33.0152 8.487 33.0152C7.55425 30.6902 6.20637 30.0684 6.20637 30.0684C4.34942 28.8196 6.34988 28.8452 6.34988 28.8452C8.40842 28.9853 9.48979 30.9208 9.48979 30.9208C11.3177 34.0009 14.2885 33.1109 15.4604 32.5967C15.6449 31.2932 16.1728 30.4066 16.7588 29.9027C12.206 29.3987 7.421 27.6664 7.421 19.9482C7.421 17.7496 8.21538 15.9524 9.53079 14.543C9.30017 14.0339 8.60829 11.9857 9.71017 9.21132C9.71017 9.21132 11.427 8.67149 15.3477 11.2767C16.9877 10.8291 18.7302 10.607 20.4727 10.5968C22.2152 10.607 23.9577 10.8291 25.5977 11.2767C29.4927 8.67149 31.2095 9.21132 31.2095 9.21132C32.3114 11.9857 31.6195 14.0339 31.4145 14.543C32.7214 15.9524 33.5158 17.7496 33.5158 19.9482C33.5158 27.6869 28.7239 29.3902 24.1627 29.8856C24.8802 30.4903 25.5464 31.7254 25.5464 33.6132C25.5464 36.3089 25.5208 38.4751 25.5208 39.1294C25.5208 39.6572 25.8795 40.2876 26.9302 40.086C35.1319 37.4415 41 29.8873 41 20.9988C41 9.87416 31.8211 0.854156 20.5 0.854156V0.854156Z" fill="#434140"/>
</g>
<defs>
<clipPath id="clip0">
<rect width="41" height="41" fill="white"/>
</clipPath>
</defs>
</svg>
