<svg width="443" height="292" viewBox="0 0 443 292" fill="none" xmlns="http://www.w3.org/2000/svg">
<path d="M306.933 132.102L309.688 131.024C309.952 130.92 310.212 130.809 310.488 130.701C305.39 128.826 301.082 125.274 298.273 120.629C295.464 115.985 294.321 110.524 295.032 105.144C295.743 99.7642 298.266 94.7863 302.185 91.0285C306.104 87.2708 311.187 84.957 316.597 84.4675L314.678 94.1318L321.963 84.5793H322.027C328.315 85.4428 334.002 88.7656 337.838 93.8169C341.674 98.8683 343.344 105.235 342.481 111.516C342.421 111.967 342.325 112.406 342.241 112.85C344.484 111.08 346.588 109.128 348.163 106.859C351.361 102.251 352.445 96.5719 353.548 89.6191C355.735 75.8494 357.706 61.9279 359.482 48.0144C354.031 46.3717 349.345 42.8407 346.267 38.0563C343.189 33.2718 341.92 27.5476 342.689 21.9126C342.789 21.1858 342.929 20.4789 343.089 19.78C343.129 19.6043 343.169 19.4286 343.213 19.2569C343.385 18.582 343.577 17.919 343.801 17.2601C343.837 17.1523 343.885 17.0524 343.921 16.9486C344.121 16.4015 344.321 15.8624 344.58 15.3512C344.668 15.1515 344.756 14.9518 344.848 14.7641C345.124 14.1931 345.416 13.634 345.736 13.0908C345.844 12.9111 345.96 12.7394 346.068 12.5597C346.316 12.1603 346.576 11.761 346.843 11.3896C346.987 11.1899 347.127 10.9902 347.275 10.7946L347.383 10.6388C350.778 6.20068 355.622 3.09117 361.075 1.85084C366.527 0.610517 372.242 1.31782 377.226 3.84978L374.731 16.4254L381.928 6.98471C385.799 10.2605 388.52 14.6866 389.694 19.6167C390.868 24.5468 390.433 29.7227 388.453 34.3884H388.481C388.413 34.5482 388.329 34.6999 388.261 34.8596C388.129 35.1552 387.993 35.4467 387.861 35.7382C387.677 36.1096 387.461 36.473 387.281 36.8325C387.129 37.104 386.981 37.3756 386.817 37.6312C386.581 38.0305 386.326 38.3899 386.07 38.7613C385.918 38.977 385.778 39.2006 385.622 39.4123C385.222 39.9674 384.774 40.4985 384.318 41.0097C384.159 41.1894 383.987 41.3532 383.819 41.5289C383.495 41.8723 383.171 42.2118 382.827 42.5352C382.615 42.7349 382.391 42.9346 382.171 43.1183C381.856 43.3979 381.532 43.6694 381.2 43.917C380.964 44.1047 380.724 44.2844 380.484 44.4601C380.136 44.7117 379.785 44.9473 379.429 45.183C379.189 45.3387 378.949 45.4945 378.705 45.6422C378.305 45.8858 377.885 46.1095 377.466 46.3291C377.254 46.4369 377.066 46.5567 376.83 46.6606C376.198 46.9681 375.55 47.2516 374.891 47.5032C374.767 47.5511 374.635 47.5871 374.511 47.631C373.959 47.8307 373.403 48.0304 372.84 48.1701C372.596 48.238 372.348 48.2939 372.1 48.3538C371.64 48.4657 371.176 48.5695 370.709 48.6573C370.442 48.7053 370.166 48.7492 369.881 48.7891C369.421 48.857 368.957 48.9089 368.49 48.9489C368.214 48.9728 367.942 48.9968 367.662 49.0128C367.158 49.0367 366.65 49.0407 366.143 49.0367C366.109 49.0347 366.076 49.0347 366.043 49.0367C365.291 54.8939 364.502 60.7511 363.676 66.6083C365.615 63.9937 368.068 61.8023 370.885 60.1685C373.702 58.5346 376.824 57.4928 380.058 57.1069C383.293 56.721 386.572 56.9992 389.695 57.9243C392.818 58.8495 395.719 60.4021 398.22 62.487L391.951 73.1018L402.03 66.4765C405.841 71.5146 407.495 77.8573 406.628 84.112C406.333 86.3081 405.727 88.4513 404.829 90.4777C402.905 94.8654 399.705 98.5741 395.645 101.123C391.584 103.671 386.85 104.942 382.058 104.769C377.265 104.597 372.635 102.99 368.768 100.157C364.902 97.3235 361.977 93.3947 360.373 88.8803C360.281 89.4714 360.193 90.0784 360.101 90.6614C359.126 96.7915 357.914 104.423 353.612 110.629C350.698 114.846 346.683 117.961 342.781 120.701C340.244 122.485 337.648 124.185 334.993 125.801C332.206 128.382 328.844 130.263 325.185 131.288C320.92 133.468 316.564 135.44 312.115 137.202L309.336 138.288C306.837 139.263 304.279 140.261 301.74 141.324C302.14 141.36 302.539 141.391 302.939 141.443C307.97 142.133 312.651 144.403 316.306 147.924C319.961 151.445 322.401 156.035 323.274 161.032L306.358 170.261L323.222 169.506C322.547 173.241 320.981 176.759 318.656 179.761C314.843 184.692 309.253 187.941 303.077 188.817C296.902 189.692 290.628 188.126 285.591 184.45L286.431 186.011C286.99 187.042 287.542 188.068 288.078 189.086C295.407 202.96 295.938 214.941 289.577 222.828L284.38 218.655C290.573 210.979 285.659 198.779 282.181 192.189C281.653 191.191 281.109 190.193 280.581 189.17C275.875 180.452 270.538 170.572 272.677 160.057C275.875 144.203 293.088 137.494 306.933 132.102Z" fill="#F2F2F2"/>
<path d="M107.791 207.269L105.64 206.426C105.432 206.346 105.241 206.255 105.025 206.175C109.005 204.709 112.367 201.934 114.559 198.306C116.751 194.679 117.643 190.415 117.088 186.214C116.532 182.013 114.563 178.126 111.503 175.192C108.444 172.257 104.475 170.449 100.251 170.065L101.75 177.613L96.0646 170.153H96.0127C93.5793 170.485 91.2353 171.292 89.1145 172.529C86.9937 173.766 85.1377 175.409 83.6525 177.362C82.1674 179.316 81.0821 181.543 80.4588 183.916C79.8355 186.288 79.6864 188.761 80.0199 191.191C80.0679 191.546 80.1438 191.886 80.2078 192.233C78.4438 190.909 76.8863 189.33 75.5859 187.549C73.095 183.955 72.2394 179.514 71.3758 174.087C69.6845 163.332 68.1492 152.462 66.7699 141.607C71.0254 140.322 74.6825 137.563 77.0841 133.826C79.4857 130.09 80.4742 125.62 79.872 121.22C79.792 120.653 79.684 120.102 79.5561 119.555L79.4601 119.155C79.3242 118.628 79.1763 118.109 79.0003 117.606C78.9724 117.522 78.9364 117.442 78.9044 117.362C78.7485 116.935 78.5765 116.516 78.3926 116.104C78.3207 115.953 78.2527 115.797 78.1807 115.645C77.9648 115.202 77.7369 114.766 77.489 114.343C77.4051 114.199 77.3131 114.064 77.2291 113.944C77.0332 113.632 76.8293 113.325 76.6214 113.029C76.5095 112.874 76.4015 112.714 76.2856 112.562L76.2016 112.442C73.5504 108.977 69.7682 106.547 65.5113 105.576C61.2544 104.604 56.7913 105.151 52.8961 107.123L54.8472 116.947L49.2218 109.575C46.1989 112.133 44.0739 115.59 43.1568 119.44C42.2398 123.29 42.5787 127.332 44.1241 130.976H44.1041C44.1561 131.1 44.22 131.22 44.276 131.344C44.38 131.575 44.4839 131.803 44.5959 132.031C44.7398 132.318 44.8917 132.602 45.0517 132.881C45.1676 133.097 45.2836 133.309 45.4115 133.516C45.5954 133.816 45.8113 134.107 45.9952 134.399C46.1152 134.566 46.2231 134.742 46.3471 134.906C46.6669 135.337 47.0068 135.753 47.3626 136.156C47.4866 136.296 47.6225 136.423 47.7624 136.555C48.0143 136.823 48.2702 137.086 48.5381 137.354C48.702 137.514 48.8779 137.661 49.0499 137.809C49.2977 138.03 49.5496 138.242 49.8055 138.444C49.9894 138.588 50.1774 138.728 50.3653 138.868C50.6371 139.063 50.913 139.267 51.1889 139.431C51.3768 139.554 51.5647 139.674 51.7566 139.79C52.0725 139.982 52.3964 140.153 52.7242 140.325C52.8921 140.413 53.0521 140.505 53.22 140.589C53.7158 140.828 54.2195 141.048 54.7353 141.244C54.8313 141.284 54.9352 141.308 55.0312 141.344C55.459 141.499 55.8948 141.643 56.3386 141.767C56.5265 141.819 56.7384 141.863 56.9143 141.907C57.2742 141.994 57.634 142.078 58.0018 142.146L58.6455 142.25C59.0054 142.302 59.3692 142.342 59.733 142.374C59.9489 142.394 60.1608 142.41 60.3807 142.422C60.7806 142.442 61.1804 142.446 61.5802 142.442H61.6562C62.2426 147.026 62.8583 151.607 63.5033 156.184C61.9918 154.139 60.0778 152.424 57.8787 151.144C55.6797 149.865 53.2422 149.048 50.7156 148.744C48.1891 148.439 45.6269 148.654 43.1864 149.374C40.7459 150.095 38.4786 151.306 36.5235 152.933L41.3773 161.175L33.5089 156.004C32.033 157.951 30.9555 160.17 30.3381 162.533C29.7207 164.897 29.5754 167.358 29.9105 169.778C30.1426 171.495 30.6178 173.17 31.3219 174.754C32.8248 178.18 35.324 181.076 38.4951 183.066C41.6663 185.056 45.3631 186.049 49.1059 185.914C52.8487 185.78 56.4646 184.525 59.4847 182.313C62.5047 180.101 64.7893 177.033 66.0422 173.508C66.1142 173.967 66.1821 174.434 66.2541 174.897C67.0138 179.69 67.9613 185.648 71.3198 190.504C73.5988 193.795 76.7334 196.227 79.78 198.367C81.7631 199.762 83.7902 201.094 85.8613 202.361C88.0387 204.376 90.6643 205.846 93.5218 206.65C96.8483 208.351 100.255 209.901 103.733 211.267L105.9 212.117C107.851 212.876 109.85 213.655 111.822 214.485C111.51 214.513 111.194 214.537 110.878 214.581C106.951 215.119 103.296 216.889 100.442 219.636C97.5875 222.383 95.6808 225.965 94.9971 229.864L108.191 237.053L95.0211 236.466C95.6009 239.569 96.9585 242.475 98.9671 244.912C100.976 247.349 103.57 249.238 106.507 250.403C109.445 251.567 112.63 251.969 115.765 251.571C118.9 251.173 121.883 249.988 124.436 248.127C124.216 248.526 124 248.926 123.78 249.345C123.344 250.144 122.913 250.942 122.493 251.741C116.771 262.576 116.355 271.936 121.325 278.099L125.375 274.84C120.538 268.849 124.376 259.317 127.095 254.169C127.494 253.39 127.93 252.604 128.358 251.813C132.032 245.024 136.199 237.288 134.539 229.074C132.056 216.718 118.602 211.494 107.791 207.269Z" fill="#F2F2F2"/>
<path d="M221.5 292C343.831 292 443 287.798 443 282.615C443 277.432 343.831 273.23 221.5 273.23C99.1689 273.23 0 277.432 0 282.615C0 287.798 99.1689 292 221.5 292Z" fill="#3F3D56"/>
<path opacity="0.1" d="M221.5 292C343.831 292 443 287.798 443 282.615C443 277.432 343.831 273.23 221.5 273.23C99.1689 273.23 0 277.432 0 282.615C0 287.798 99.1689 292 221.5 292Z" fill="black"/>
<path d="M221.5 286.808C343.831 286.808 443 282.607 443 277.424C443 272.24 343.831 268.039 221.5 268.039C99.1689 268.039 0 272.24 0 277.424C0 282.607 99.1689 286.808 221.5 286.808Z" fill="#3F3D56"/>
<path d="M33.9847 274.085C32.7852 271.885 34.1446 269.189 35.6959 267.224C37.2472 265.259 39.1383 263.231 39.0983 260.719C39.0424 257.124 35.2201 255.004 32.1695 253.099C29.906 251.684 27.8178 250.007 25.9483 248.103C25.1669 247.369 24.5201 246.504 24.0372 245.547C23.4054 244.141 23.4254 242.544 23.4654 241.002C23.5987 235.875 23.8519 230.752 24.2251 225.635" stroke="#3F3D56" stroke-width="4" stroke-miterlimit="10"/>
<path d="M18.4357 225.352C18.4788 224.414 18.7579 223.502 19.247 222.7C19.7361 221.898 20.4196 221.232 21.2344 220.763L22.4898 223.243L22.4539 220.24C23.0526 220.062 23.6771 219.986 24.301 220.016C25.4057 220.07 26.4697 220.45 27.3586 221.107C28.2475 221.765 28.9214 222.671 29.2954 223.71C29.6694 224.75 29.7266 225.877 29.4598 226.949C29.193 228.021 28.6143 228.99 27.7965 229.734C26.9788 230.478 25.9587 230.963 24.8651 231.129C23.7715 231.294 22.6534 231.132 21.6519 230.663C20.6504 230.194 19.8105 229.44 19.2381 228.494C18.6656 227.549 18.3864 226.455 18.4357 225.352V225.352Z" fill="#1B919E"/>
<path d="M28.4432 263.29C29.0008 264.399 29.9116 265.291 31.0324 265.825C32.1531 266.36 33.4201 266.507 34.6337 266.244C35.8474 265.98 36.9389 265.321 37.7363 264.37C38.5337 263.419 38.9918 262.23 39.0384 260.99C39.0783 260.216 38.9543 259.441 38.6745 258.718C38.2724 257.647 37.5513 256.726 36.6085 256.077C35.6658 255.429 34.5466 255.085 33.402 255.091C32.2574 255.098 31.1423 255.455 30.207 256.114C29.2717 256.773 28.5612 257.703 28.1713 258.778L31.6777 261.625L27.8234 260.731C27.8213 261.621 28.0338 262.499 28.4432 263.29V263.29Z" fill="#1B919E"/>
<path d="M31.2139 252.408C32.6122 252.514 33.9992 252.091 35.1006 251.224C36.2019 250.358 36.9375 249.109 37.1616 247.727C37.3858 246.344 37.0823 244.928 36.3111 243.758C35.5399 242.588 34.3573 241.75 32.9971 241.41L33.0251 243.722L31.7537 241.21C30.2665 241.141 28.8126 241.664 27.7119 242.666C26.6112 243.667 25.9538 245.064 25.8843 246.549C25.8149 248.035 26.339 249.487 27.3415 250.587C28.344 251.686 29.7427 252.343 31.2299 252.412L31.2139 252.408Z" fill="#1B919E"/>
<path d="M17.592 243.355C18.3271 243.389 19.0618 243.279 19.7542 243.03C20.4466 242.781 21.0831 242.398 21.6273 241.903C22.1716 241.409 22.613 240.812 22.9263 240.147C23.2397 239.482 23.4187 238.761 23.4534 238.027C23.4881 237.293 23.3776 236.559 23.1283 235.868C22.879 235.176 22.4958 234.54 22.0005 233.997C21.5053 233.453 20.9076 233.012 20.2418 232.699C19.5759 232.386 18.8549 232.207 18.1198 232.173C17.0704 232.121 16.0278 232.367 15.1132 232.884L16.1047 235.599L14.0616 233.642C12.9689 234.642 12.3176 236.034 12.2505 237.512C12.2234 238.029 12.2719 238.547 12.3944 239.05C12.6735 240.234 13.3321 241.296 14.2702 242.073C15.2083 242.85 16.3746 243.3 17.592 243.355V243.355Z" fill="#1B919E"/>
<path opacity="0.1" d="M19.1913 226.845C20.4867 226.989 21.7462 227.392 23.0456 227.472C24.345 227.552 25.7723 227.241 26.596 226.234C27.0398 225.687 27.2597 225 27.6315 224.409C27.9876 223.857 28.4735 223.401 29.0469 223.079C29.3854 223.786 29.5714 224.556 29.5928 225.34C29.6142 226.123 29.4705 226.902 29.1711 227.626C28.8716 228.351 28.4231 229.004 27.8545 229.544C27.286 230.084 26.6102 230.498 25.8709 230.761C25.1316 231.023 24.3454 231.127 23.5633 231.066C22.7811 231.006 22.0205 230.781 21.3307 230.408C20.6409 230.035 20.0374 229.521 19.5594 228.899C19.0813 228.278 18.7393 227.563 18.5556 226.801C18.7675 226.809 18.9794 226.825 19.1913 226.845Z" fill="black"/>
<path opacity="0.1" d="M17.592 243.355C18.5598 243.404 19.5237 243.201 20.3895 242.766C21.2553 242.332 21.9933 241.68 22.5313 240.875C23.0692 240.07 23.3888 239.139 23.4586 238.174C23.5284 237.208 23.3462 236.241 22.9296 235.368C22.4842 235.668 22.1013 236.052 21.8021 236.498C21.4023 237.101 21.1584 237.796 20.6906 238.351C19.815 239.377 18.3237 239.713 16.9683 239.649C15.6129 239.585 14.3055 239.205 12.9701 239.082C12.7822 239.082 12.5943 239.05 12.4064 239.046C12.6841 240.229 13.3406 241.29 14.2764 242.068C15.2121 242.846 16.3761 243.297 17.592 243.355V243.355Z" fill="black"/>
<path opacity="0.1" d="M31.2139 252.408C32.173 252.457 33.1286 252.259 33.9889 251.833C34.8492 251.406 35.5852 250.766 36.1261 249.974C36.667 249.181 36.9947 248.263 37.0776 247.307C37.1605 246.351 36.9958 245.391 36.5995 244.517C36.1332 244.82 35.7267 245.205 35.4 245.655C34.9642 246.27 34.6923 246.977 34.2005 247.544C33.257 248.598 31.6657 248.97 30.2303 248.934C28.795 248.898 27.5036 248.562 26.1202 248.458C26.4579 249.561 27.1286 250.532 28.0404 251.239C28.9523 251.947 30.0607 252.355 31.2139 252.408V252.408Z" fill="black"/>
<path opacity="0.1" d="M28.4431 263.29C29.0007 264.399 29.9116 265.291 31.0324 265.825C32.1531 266.36 33.4201 266.507 34.6337 266.244C35.8474 265.98 36.9389 265.321 37.7363 264.37C38.5337 263.419 38.9918 262.23 39.0384 260.99C39.0783 260.216 38.9543 259.441 38.6745 258.718C38.2122 259.02 37.7973 259.389 37.4431 259.812C36.9073 260.463 36.5595 261.198 35.9398 261.809C34.7923 262.935 32.9411 263.406 31.2939 263.442C30.3415 263.446 29.3897 263.395 28.4431 263.29V263.29Z" fill="black"/>
<path d="M42.4568 271.553C42.4568 271.553 38.0268 271.417 36.6954 270.467C35.364 269.516 29.8985 268.382 29.5507 269.908C29.2028 271.433 22.8937 277.495 27.8954 277.519C32.8972 277.543 39.5142 276.721 40.8456 275.922C42.177 275.123 42.4568 271.553 42.4568 271.553Z" fill="#656380"/>
<path opacity="0.2" d="M27.8034 276.988C32.8052 277.028 39.4222 276.19 40.7576 275.391C41.7691 274.776 42.173 272.559 42.3089 271.537H42.4568C42.4568 271.537 42.177 275.103 40.8575 275.93C39.5381 276.757 32.9051 277.559 27.9074 277.527C26.464 277.527 25.9643 277.004 25.9923 276.241C26.1802 276.693 26.7319 276.988 27.8034 276.988Z" fill="black"/>
<path d="M421.81 277.679C420.61 275.479 421.97 272.783 423.521 270.818C425.072 268.853 426.963 266.825 426.923 264.313C426.867 260.719 423.045 258.598 419.994 256.693C417.731 255.278 415.643 253.601 413.773 251.697C412.992 250.963 412.345 250.098 411.862 249.141C411.23 247.736 411.25 246.138 411.29 244.597C411.421 239.469 411.674 234.347 412.05 229.229" stroke="#3F3D56" stroke-width="4" stroke-miterlimit="10"/>
<path d="M406.261 228.946C406.304 228.008 406.583 227.096 407.072 226.294C407.561 225.492 408.245 224.826 409.059 224.357L410.315 226.837L410.279 223.834C410.877 223.656 411.502 223.581 412.126 223.611C413.23 223.665 414.294 224.046 415.182 224.703C416.071 225.361 416.744 226.267 417.117 227.307C417.491 228.347 417.547 229.474 417.28 230.545C417.013 231.617 416.434 232.586 415.616 233.33C414.798 234.073 413.778 234.558 412.685 234.723C411.591 234.888 410.473 234.726 409.472 234.257C408.471 233.788 407.631 233.033 407.059 232.088C406.487 231.143 406.207 230.049 406.257 228.946H406.261Z" fill="#1B919E"/>
<path d="M416.268 266.885C416.826 267.993 417.737 268.885 418.857 269.42C419.978 269.954 421.245 270.101 422.459 269.838C423.672 269.574 424.764 268.915 425.561 267.964C426.359 267.013 426.817 265.824 426.863 264.584C426.903 263.81 426.779 263.035 426.499 262.312C426.097 261.242 425.376 260.32 424.433 259.672C423.491 259.023 422.372 258.679 421.227 258.686C420.082 258.692 418.967 259.049 418.032 259.708C417.097 260.367 416.386 261.297 415.996 262.372L419.503 265.219L415.648 264.325C415.646 265.215 415.859 266.093 416.268 266.885V266.885Z" fill="#1B919E"/>
<path d="M419.039 256.002C420.437 256.108 421.824 255.685 422.925 254.819C424.027 253.952 424.762 252.704 424.987 251.321C425.211 249.938 424.907 248.522 424.136 247.352C423.365 246.183 422.182 245.345 420.822 245.004L420.85 247.316L419.579 244.804C418.091 244.735 416.638 245.259 415.537 246.26C414.436 247.261 413.779 248.658 413.709 250.144C413.64 251.629 414.164 253.081 415.166 254.181C416.169 255.28 417.568 255.937 419.055 256.006L419.039 256.002Z" fill="#1B919E"/>
<path d="M405.417 246.949C406.902 247.019 408.353 246.497 409.452 245.498C410.551 244.499 411.208 243.104 411.278 241.621C411.348 240.139 410.826 238.689 409.825 237.591C408.825 236.493 407.429 235.837 405.945 235.767C404.895 235.715 403.853 235.961 402.938 236.478L403.93 239.193L401.887 237.237C400.794 238.236 400.143 239.628 400.075 241.106C400.048 241.623 400.097 242.141 400.219 242.644C400.498 243.829 401.157 244.89 402.095 245.667C403.033 246.444 404.2 246.894 405.417 246.949V246.949Z" fill="#1B919E"/>
<path opacity="0.1" d="M407.016 230.44C408.312 230.583 409.571 230.987 410.871 231.067C412.17 231.146 413.597 230.835 414.421 229.829C414.865 229.281 415.085 228.595 415.456 228.003C415.813 227.452 416.298 226.995 416.872 226.674C417.21 227.381 417.396 228.151 417.418 228.934C417.439 229.717 417.295 230.496 416.996 231.221C416.697 231.945 416.248 232.598 415.679 233.138C415.111 233.678 414.435 234.093 413.696 234.355C412.957 234.617 412.17 234.721 411.388 234.661C410.606 234.6 409.845 234.375 409.156 234.002C408.466 233.629 407.862 233.115 407.384 232.493C406.906 231.872 406.564 231.157 406.381 230.396C406.592 230.404 406.804 230.42 407.016 230.44Z" fill="black"/>
<path opacity="0.1" d="M405.417 246.949C406.385 246.998 407.349 246.795 408.214 246.36C409.08 245.926 409.818 245.274 410.356 244.469C410.894 243.664 411.214 242.733 411.284 241.768C411.353 240.803 411.171 239.836 410.755 238.962C410.309 239.262 409.926 239.646 409.627 240.092C409.227 240.695 408.983 241.39 408.516 241.945C407.64 242.971 406.149 243.307 404.793 243.243C403.438 243.179 402.13 242.8 400.795 242.676C400.607 242.676 400.419 242.644 400.231 242.64C400.509 243.824 401.166 244.885 402.101 245.662C403.037 246.44 404.201 246.891 405.417 246.949V246.949Z" fill="black"/>
<path opacity="0.1" d="M419.039 256.002C419.998 256.051 420.954 255.853 421.814 255.427C422.674 255.001 423.41 254.36 423.951 253.568C424.492 252.775 424.82 251.857 424.903 250.901C424.985 249.946 424.821 248.985 424.424 248.111C423.958 248.414 423.552 248.8 423.225 249.249C422.789 249.864 422.517 250.571 422.026 251.138C421.082 252.192 419.491 252.564 418.055 252.528C416.62 252.492 415.328 252.156 413.945 252.053C414.283 253.155 414.954 254.127 415.865 254.834C416.777 255.541 417.886 255.949 419.039 256.002V256.002Z" fill="black"/>
<path opacity="0.1" d="M416.268 266.885C416.826 267.993 417.737 268.885 418.857 269.42C419.978 269.954 421.245 270.102 422.459 269.838C423.672 269.575 424.764 268.915 425.561 267.964C426.359 267.013 426.817 265.824 426.863 264.584C426.903 263.81 426.779 263.036 426.499 262.312C426.037 262.614 425.622 262.983 425.268 263.406C424.732 264.057 424.384 264.792 423.765 265.403C422.617 266.529 420.766 267 419.119 267.036C418.166 267.04 417.215 266.99 416.268 266.885V266.885Z" fill="black"/>
<path d="M430.282 275.147C430.282 275.147 425.852 275.011 424.52 274.061C423.189 273.111 417.723 271.976 417.376 273.502C417.028 275.027 410.719 281.09 415.72 281.114C420.722 281.138 427.339 280.315 428.67 279.516C430.002 278.717 430.282 275.147 430.282 275.147Z" fill="#656380"/>
<path opacity="0.2" d="M415.628 280.582C420.63 280.622 427.247 279.784 428.582 278.985C429.594 278.37 429.998 276.154 430.134 275.131H430.282C430.282 275.131 430.002 278.698 428.682 279.524C427.363 280.351 420.73 281.154 415.732 281.122C414.289 281.122 413.789 280.598 413.817 279.836C414.005 280.287 414.557 280.582 415.628 280.582Z" fill="black"/>
<path d="M298.093 132.246C295.449 131.341 292.784 130.502 290.097 129.73C290.54 127.923 290.951 126.105 291.332 124.279C297.386 94.9226 293.428 71.2728 279.91 63.4894C266.948 56.0214 245.749 63.8089 224.335 82.4148C222.224 84.2571 220.162 86.1474 218.15 88.0856C216.798 86.7944 215.425 85.5284 214.031 84.2878C191.598 64.3879 169.124 56.0055 155.602 63.8128C142.652 71.3007 138.809 93.5328 144.267 121.356C144.8 124.111 145.412 126.851 146.102 129.575C142.923 130.477 139.849 131.44 136.906 132.466C110.602 141.607 93.8016 155.984 93.8016 170.876C93.8016 186.255 111.838 201.682 139.237 211.035C141.46 211.788 143.699 212.489 145.954 213.135C145.224 216.064 144.573 219.017 144.003 221.993C138.805 249.333 142.868 271.042 155.782 278.482C169.124 286.173 191.514 278.266 213.312 259.233C215.035 257.727 216.762 256.13 218.509 254.461C220.69 256.561 222.927 258.601 225.222 260.579C246.341 278.729 267.203 286.062 280.102 278.598C293.428 270.894 297.758 247.572 292.136 219.202C291.71 217.035 291.213 214.823 290.645 212.568C292.22 212.105 293.761 211.625 295.267 211.127C323.75 201.702 342.285 186.463 342.285 170.876C342.285 155.928 324.941 141.475 298.105 132.246H298.093Z" fill="#53C1DE"/>
<path d="M291.916 201.063C290.557 201.514 289.165 201.946 287.742 202.369C284.269 191.615 280.065 181.11 275.16 170.928C279.878 160.881 283.919 150.531 287.254 139.946C289.793 140.681 292.264 141.455 294.639 142.274C317.633 150.177 331.658 161.866 331.658 170.876C331.658 180.46 316.509 192.924 291.916 201.063ZM281.713 221.262C284.2 233.806 284.551 245.148 282.912 254.009C281.433 261.977 278.458 267.288 274.78 269.416C266.947 273.941 250.203 268.059 232.143 252.536C230.072 250.755 227.989 248.858 225.894 246.845C233.423 238.519 240.381 229.694 246.721 220.432C258.044 219.473 269.288 217.739 280.373 215.24C280.88 217.285 281.329 219.282 281.721 221.23L281.713 221.262ZM178.511 268.642C170.859 271.341 164.766 271.417 161.083 269.297C153.247 264.78 149.988 247.332 154.434 223.97C154.967 221.209 155.571 218.463 156.245 215.731C167.285 218.099 178.472 219.717 189.73 220.575C196.255 229.806 203.38 238.597 211.061 246.893C209.517 248.386 207.939 249.839 206.327 251.25C196.687 259.668 187.024 265.627 178.511 268.642V268.642ZM142.672 201.003C130.553 196.866 120.55 191.49 113.689 185.628C107.527 180.356 104.417 175.121 104.417 170.876C104.417 161.838 117.907 150.309 140.401 142.478C143.226 141.495 146.077 140.599 148.953 139.79C152.294 150.492 156.34 160.962 161.063 171.131C156.281 181.446 152.186 192.066 148.805 202.92C146.742 202.332 144.697 201.693 142.672 201.003ZM154.686 119.319C150.016 95.4817 153.115 77.4987 160.919 72.994C169.232 68.2018 187.611 75.0387 206.987 92.2229C208.226 93.3211 209.469 94.4713 210.713 95.6574C203.088 103.903 196.018 112.644 189.55 121.823C178.398 122.822 167.323 124.541 156.393 126.971C155.756 124.436 155.187 121.887 154.686 119.323V119.319ZM261.882 145.752C259.454 141.562 256.936 137.425 254.329 133.34C262.258 134.343 269.85 135.669 276.983 137.298C274.694 144.55 272.04 151.683 269.031 158.668C266.736 154.315 264.353 150.01 261.882 145.752ZM218.157 103.233C223.325 108.86 228.205 114.743 232.779 120.861C222.994 120.4 213.205 120.4 203.412 120.861C208.238 114.503 213.184 108.592 218.157 103.237V103.233ZM174.177 145.824C171.738 150.049 169.4 154.328 167.161 158.66C164.07 151.339 161.427 144.139 159.268 137.186C166.357 135.589 173.917 134.307 181.794 133.32C179.15 137.431 176.608 141.599 174.169 145.824H174.177ZM182.018 209.182C174.33 208.348 166.69 207.121 159.128 205.504C161.323 198.431 164.026 191.075 167.185 183.595C169.431 187.932 171.778 192.213 174.225 196.438C176.715 200.749 179.31 204.997 182.01 209.182H182.018ZM218.457 239.265C213.42 233.858 208.402 227.868 203.508 221.394C208.266 221.583 213.112 221.678 218.046 221.678C223.11 221.678 228.109 221.566 233.043 221.342C228.488 227.562 223.618 233.544 218.449 239.265H218.457ZM269.11 183.216C272.276 190.342 275.068 197.628 277.475 205.045C269.819 206.765 262.079 208.083 254.285 208.994C256.911 204.833 259.454 200.622 261.914 196.363C264.414 192.034 266.813 187.651 269.11 183.216ZM252.718 191.067C248.954 197.595 244.981 203.998 240.799 210.276C233.427 210.803 225.81 211.075 218.046 211.075C210.281 211.075 202.792 210.835 195.548 210.364C191.259 204.107 187.209 197.695 183.397 191.127C179.586 184.559 176.053 177.892 172.798 171.127C176.069 164.33 179.591 157.661 183.365 151.12C187.134 144.581 191.15 138.191 195.412 131.951C202.804 131.392 210.377 131.1 218.038 131.1C225.698 131.1 233.319 131.396 240.703 131.955C244.917 138.177 248.916 144.541 252.698 151.048C256.48 157.555 260.051 164.193 263.409 170.964C260.091 177.785 256.531 184.48 252.73 191.051L252.718 191.067ZM274.616 72.6745C282.936 77.4668 286.171 96.7955 280.945 122.143C280.601 123.791 280.228 125.435 279.826 127.075C268.88 124.596 257.782 122.844 246.605 121.831C240.199 112.643 233.183 103.896 225.602 95.6494C227.468 93.855 229.372 92.1098 231.316 90.4138C249.659 74.4676 266.804 68.1738 274.616 72.6745Z" fill="white"/>
<path d="M218.038 148.712C222.426 148.712 226.717 150.012 230.366 152.447C234.015 154.882 236.859 158.344 238.538 162.394C240.218 166.444 240.657 170.9 239.801 175.2C238.945 179.499 236.832 183.448 233.728 186.548C230.625 189.648 226.671 191.759 222.367 192.614C218.062 193.469 213.601 193.03 209.546 191.353C205.491 189.675 202.026 186.834 199.587 183.19C197.149 179.545 195.848 175.259 195.848 170.876C195.847 167.965 196.421 165.083 197.536 162.393C198.651 159.704 200.285 157.26 202.346 155.202C204.406 153.144 206.853 151.511 209.545 150.398C212.238 149.284 215.123 148.711 218.038 148.712" fill="#53C1DE"/>
<path d="M223.603 8.14683C223.603 9.45798 223.214 10.7397 222.485 11.8299C221.755 12.92 220.719 13.7697 219.506 14.2715C218.293 14.7732 216.959 14.9045 215.671 14.6487C214.384 14.3929 213.201 13.7616 212.273 12.8344C211.345 11.9073 210.713 10.7261 210.457 9.44014C210.2 8.15419 210.332 6.82126 210.834 5.60992C211.337 4.39857 212.187 3.36322 213.279 2.63479C214.37 1.90635 215.653 1.51755 216.966 1.51755C217.839 1.51332 218.704 1.6819 219.511 2.01356C220.318 2.34521 221.051 2.83336 221.669 3.44979C222.286 4.06622 222.774 4.79871 223.106 5.60492C223.439 6.41113 223.607 7.27508 223.603 8.14683V8.14683Z" fill="#3F3D56"/>
<path d="M211.664 9.82013C211.138 8.87052 210.853 7.80655 210.835 6.7214C210.816 5.63626 211.064 4.56307 211.557 3.59584C212.049 2.6286 212.772 1.79685 213.662 1.17343C214.551 0.550014 215.58 0.153962 216.658 0.019969C215.744 -0.0120159 214.833 0.145184 213.982 0.481698C213.131 0.818212 212.36 1.32677 211.715 1.97544C211.071 2.62411 210.567 3.39887 210.237 4.25108C209.906 5.10329 209.756 6.01453 209.795 6.92759C209.834 7.84064 210.061 8.73579 210.463 9.55681C210.865 10.3778 211.433 11.107 212.13 11.6985C212.827 12.29 213.64 12.7311 214.516 12.9941C215.392 13.2571 216.314 13.3362 217.222 13.2266C216.08 13.1845 214.969 12.8488 213.995 12.2521C213.022 11.6553 212.219 10.8176 211.664 9.82013V9.82013Z" fill="#3F3D56"/>
<path d="M226.45 17.3799H208.67V45.0831H226.45V17.3799Z" fill="#3F3D56"/>
<path opacity="0.1" d="M226.45 17.3799H208.67V45.0831H226.45V17.3799Z" fill="black"/>
<path d="M180.582 117.889C180.582 117.889 178.683 123.101 174.185 123.812C169.687 124.523 167.073 125.705 167.073 125.705L177.74 132.57L183.429 131.859C183.429 131.859 184.141 124.519 186.512 122.861C188.883 121.204 180.582 117.889 180.582 117.889Z" fill="#A0616A"/>
<path d="M257.62 117.889C257.62 117.889 259.519 123.101 264.017 123.812C268.515 124.523 271.13 125.705 271.13 125.705L260.462 132.57L254.773 131.859C254.773 131.859 254.061 124.519 251.69 122.861C249.319 121.204 257.62 117.889 257.62 117.889Z" fill="#A0616A"/>
<path d="M205.707 71.9557C205.707 71.9557 202.864 73.3774 201.917 76.2208C201.917 76.2208 196.719 77.8781 193.856 82.3748C193.856 82.3748 190.298 86.1647 189.826 88.0577C189.355 89.9506 183.917 101.316 183.917 101.316C183.917 101.316 178.463 119.076 175.621 120.968C175.621 120.968 184.629 119.076 186.288 128.073C186.288 128.073 188.419 128.073 190.79 119.786C193.161 111.5 198.85 101.316 198.85 101.316C198.85 101.316 200.745 94.2157 202.405 93.0296C204.064 91.8435 206.671 86.4003 209.042 87.838C211.413 89.2757 227.057 87.5984 227.057 87.5984C227.057 87.5984 236.293 91.8475 236.525 94.6869C236.757 97.5264 238.42 97.766 238.656 100.134C238.892 102.502 247.664 121.204 247.664 121.204C247.664 121.204 249.323 126.396 249.799 127.594C249.799 127.594 254.997 115.046 261.89 122.151C261.89 122.151 261.65 117.414 259.519 114.563C257.388 111.711 248.14 89.4674 248.14 89.4674C248.14 89.4674 247.192 86.1527 246.245 85.2063C245.297 84.2598 237.945 76.6801 235.338 76.6801C235.338 76.6801 233.918 73.1298 232.259 72.6546L205.707 71.9557Z" fill="#3F3D56"/>
<path d="M184.373 130.202C182.521 130.944 180.509 131.195 178.532 130.93C176.554 130.664 174.68 129.892 173.09 128.688C171.545 127.503 169.853 126.523 168.056 125.773C165.541 124.758 162.535 124.008 161.619 125.705C159.96 128.784 181.766 136.36 181.766 136.36C181.766 136.36 184.613 134.702 184.373 130.202Z" fill="#3F3D56"/>
<path d="M253.829 130.202C255.681 130.944 257.693 131.195 259.671 130.93C261.648 130.664 263.523 129.892 265.112 128.688C266.657 127.503 268.349 126.523 270.146 125.773C272.661 124.758 275.668 124.008 276.583 125.705C278.242 128.784 256.436 136.36 256.436 136.36C256.436 136.36 253.59 134.702 253.829 130.202Z" fill="#3F3D56"/>
<path d="M213.456 33.0146C213.368 33.8373 213.096 34.7279 212.392 35.1632C211.816 35.5226 211.089 35.4946 210.425 35.6304C209.728 35.8047 209.082 36.1402 208.539 36.6098C207.996 37.0795 207.571 37.6701 207.298 38.334C206.766 39.674 206.661 41.1455 206.999 42.5472C207.155 43.2337 207.358 43.9088 207.606 44.568C208.302 46.5328 209.142 48.4816 210.441 50.115C211.55 51.4135 212.797 52.5878 214.159 53.6173C215.003 54.3042 215.875 55.0031 216.914 55.3266C217.619 55.5124 218.344 55.609 219.073 55.6141C219.973 55.654 220.932 55.682 221.712 55.2347C222.911 54.5438 223.267 53.0183 223.919 51.7923C224.471 50.754 225.294 49.8714 225.81 48.8131C226.177 47.979 226.445 47.1052 226.61 46.2093L227.717 41.2973C228.117 39.5121 228.485 37.4994 227.481 35.9699C227.408 35.8454 227.307 35.74 227.185 35.6624C226.992 35.5863 226.782 35.5656 226.578 35.6025C225.303 35.6852 224.032 35.3952 222.919 34.7678C222.745 34.6777 222.589 34.5558 222.46 34.4084C222.3 34.1526 222.204 33.8623 222.18 33.5617C222.072 32.9532 221.9 32.3576 221.668 31.7846C221.603 31.5781 221.482 31.3932 221.32 31.2495C221.15 31.1429 220.957 31.0785 220.756 31.0618C219.045 30.7844 217.319 30.6044 215.587 30.5227C215.019 30.4947 214.163 30.2671 213.771 30.7703C213.38 31.2735 213.504 32.4156 213.456 33.0146Z" fill="#A0616A"/>
<path opacity="0.1" d="M213.456 33.0146C213.368 33.8373 213.096 34.7279 212.392 35.1632C211.816 35.5226 211.089 35.4946 210.425 35.6304C209.728 35.8047 209.082 36.1402 208.539 36.6098C207.996 37.0795 207.571 37.6701 207.298 38.334C206.766 39.674 206.661 41.1455 206.999 42.5472C207.155 43.2337 207.358 43.9088 207.606 44.568C208.302 46.5328 209.142 48.4816 210.441 50.115C211.55 51.4135 212.797 52.5878 214.159 53.6173C215.003 54.3042 215.875 55.0031 216.914 55.3266C217.619 55.5124 218.344 55.609 219.073 55.6141C219.973 55.654 220.932 55.682 221.712 55.2347C222.911 54.5438 223.267 53.0183 223.919 51.7923C224.471 50.754 225.294 49.8714 225.81 48.8131C226.177 47.979 226.445 47.1052 226.61 46.2093L227.717 41.2973C228.117 39.5121 228.485 37.4994 227.481 35.9699C227.408 35.8454 227.307 35.74 227.185 35.6624C226.992 35.5863 226.782 35.5656 226.578 35.6025C225.303 35.6852 224.032 35.3952 222.919 34.7678C222.745 34.6777 222.589 34.5558 222.46 34.4084C222.3 34.1526 222.204 33.8623 222.18 33.5617C222.072 32.9532 221.9 32.3576 221.668 31.7846C221.603 31.5781 221.482 31.3932 221.32 31.2495C221.15 31.1429 220.957 31.0785 220.756 31.0618C219.045 30.7844 217.319 30.6044 215.587 30.5227C215.019 30.4947 214.163 30.2671 213.771 30.7703C213.38 31.2735 213.504 32.4156 213.456 33.0146Z" fill="black"/>
<path d="M210.245 35.8381C209.319 35.5619 208.36 35.4114 207.394 35.3908C205.107 35.3349 202.661 36.1216 201.341 37.9866C200.442 39.3328 200.113 40.9795 200.426 42.5672C200.744 44.14 201.46 45.6055 202.505 46.8243C203.108 47.465 203.644 48.1663 204.104 48.9169C204.736 50.115 204.756 51.5487 204.927 52.9105C205.327 56.1532 206.711 59.2003 207.258 62.4231C207.806 65.6459 207.334 69.3798 204.788 71.4285C204.36 71.772 203.84 72.1354 203.804 72.6825C203.748 73.5571 204.888 73.9285 205.763 74.0124C208.382 74.26 211.069 74.5036 213.612 73.8287C214.663 73.5491 215.679 73.1138 216.75 72.9141C219.469 72.4069 222.204 73.4493 224.926 73.9485C226.897 74.2734 228.891 74.435 230.888 74.4317C231.353 74.4732 231.821 74.4118 232.259 74.252C232.476 74.1669 232.661 74.015 232.786 73.8183C232.911 73.6216 232.97 73.3903 232.955 73.1577C232.866 72.8567 232.704 72.5823 232.483 72.359C231.108 70.6618 230.688 68.4054 230.312 66.2529L229.053 59.0206C228.377 55.1548 227.749 50.9536 229.58 47.4832C230.896 44.9873 233.323 43.2301 234.71 40.7741C235.194 40.0317 235.412 39.148 235.33 38.2661C235.122 37.0321 234.006 36.1496 232.863 35.6344C230.663 34.6486 228.165 34.5569 225.898 35.3788C225.938 37.108 225.498 38.8572 225.214 40.5704L224.731 43.3659C224.484 45.0133 224.122 46.6414 223.647 48.238C223.474 48.8768 223.18 49.4761 222.779 50.0032C222.353 50.4773 221.831 50.8569 221.248 51.1174C219.986 51.7337 218.599 52.0508 217.194 52.0439C216.586 52.0532 215.98 51.96 215.403 51.7683C214.473 51.3611 213.634 50.7717 212.936 50.0351C212.691 49.8263 212.472 49.5889 212.284 49.3283C212.085 48.9964 211.935 48.6371 211.84 48.262C211.517 47.2852 211.261 46.2871 211.077 45.2748C210.957 44.5001 210.917 43.7133 210.861 42.9306C210.705 40.6183 210.705 38.0625 210.245 35.8381Z" fill="#1B919E"/>
<path d="M207.842 81.664C207.842 81.664 206.895 94.2157 212.82 96.3443C218.745 98.4728 213.532 85.9251 213.532 85.9251L211.632 82.1392L207.842 81.664Z" fill="#A0616A"/>
<path d="M227.989 81.664C227.989 81.664 228.937 94.2157 223.011 96.3443C217.086 98.4728 222.3 85.9251 222.3 85.9251L224.199 82.1392L227.989 81.664Z" fill="#A0616A"/>
<path opacity="0.1" d="M202.625 39.7717L200.729 42.8507C200.729 42.8507 202.389 53.5055 202.625 55.3985C202.829 56.7644 203.147 58.1109 203.576 59.4239C203.576 59.4239 203.812 65.1068 203.812 67.2393C203.812 69.3719 205.011 72.9221 205.011 72.9221C205.179 74.9349 205.581 76.9212 206.211 78.8406C207.158 81.4443 208.106 84.5234 208.106 84.5234C208.106 84.5234 209.306 81.2087 214.031 86.1807C214.561 85.6442 214.857 84.9212 214.857 84.168C214.857 83.4147 214.561 82.6917 214.031 82.1552C214.031 82.1552 212.612 75.7655 212.612 72.4469C212.612 69.1283 210.001 53.2779 210.001 53.2779C210.001 53.2779 208.306 35.259 202.625 39.7717Z" fill="black"/>
<path d="M202.153 39.5201L200.258 42.5991C200.258 42.5991 201.917 53.2539 202.153 55.1469C202.358 56.513 202.678 57.8596 203.108 59.1723C203.108 59.1723 203.344 64.8552 203.344 66.9837C203.344 69.1123 204.544 72.6665 204.544 72.6665C204.71 74.6795 205.112 76.6659 205.743 78.585C206.691 81.1928 207.642 84.2678 207.642 84.2678C207.642 84.2678 208.842 80.9531 213.568 85.9251C214.096 85.3888 214.392 84.6666 214.392 83.9144C214.392 83.1621 214.096 82.4399 213.568 81.9036C213.568 81.9036 212.144 75.5139 212.144 72.1953C212.144 68.8767 209.537 53.0263 209.537 53.0263C209.537 53.0263 207.842 35.0194 202.153 39.5201Z" fill="#1B919E"/>
<path opacity="0.1" d="M233.443 37.8628L234.642 39.2725C234.642 39.2725 236.037 47.3315 232.955 57.515L232.007 66.7481C232.007 66.7481 230.348 74.5635 230.112 76.4564C229.876 78.3493 229.876 78.585 229.4 79.2958C229.256 79.4621 229.177 79.6748 229.177 79.8949C229.177 80.1149 229.256 80.3276 229.4 80.4939L227.977 85.6855C227.977 85.6855 225.846 83.0817 221.58 86.3963C221.58 86.3963 220.381 84.5034 221.34 82.8461C222.3 81.1888 222.288 80.4779 222.052 80.0027C221.816 79.5274 222.999 77.1633 222.999 76.688C222.999 76.2128 224.671 65.3304 224.671 65.3304C224.671 65.3304 225.382 54.6756 226.094 51.1254C226.53 48.9409 226.522 44.0728 226.446 40.6463C226.37 37.0761 230.696 35.1432 233.243 37.6511C233.303 37.715 233.375 37.7749 233.443 37.8628Z" fill="black"/>
<path d="M234.154 37.3756L235.354 38.7853C235.354 38.7853 236.749 46.8483 233.666 57.0278L232.719 66.2609C232.719 66.2609 231.06 74.0763 230.824 75.9692C230.588 77.8621 230.584 78.1018 230.112 78.8126C229.967 78.9785 229.887 79.1913 229.887 79.4116C229.887 79.6319 229.967 79.8448 230.112 80.0107L228.697 85.2182C228.697 85.2182 226.566 82.6105 222.3 85.9251C222.3 85.9251 221.1 84.0322 222.064 82.3748C223.027 80.7175 223.011 80.0067 222.775 79.5354C222.54 79.0642 223.723 76.692 223.723 76.2208C223.723 75.7496 225.382 64.8552 225.382 64.8552C225.382 64.8552 226.094 54.2004 226.806 50.6461C227.517 47.0919 227.041 36.4411 227.041 36.4411C227.041 36.4411 230.836 33.8373 234.154 37.3756Z" fill="#1B919E"/>
<path d="M218.269 34.0769C223.507 34.0769 227.753 29.8358 227.753 24.6042C227.753 19.3726 223.507 15.1315 218.269 15.1315C213.032 15.1315 208.786 19.3726 208.786 24.6042C208.786 29.8358 213.032 34.0769 218.269 34.0769Z" fill="#A0616A"/>
<path opacity="0.1" d="M223.215 10.3832C222.759 11.6543 221.926 12.756 220.826 13.541C219.726 14.326 218.413 14.7568 217.061 14.776C215.709 14.7951 214.384 14.4015 213.263 13.6479C212.141 12.8943 211.277 11.8166 210.785 10.5589C214.487 9.06934 218.269 10.3952 218.269 10.3952C220.161 9.73227 221.8 9.79217 223.215 10.3832Z" fill="black"/>
<path d="M218.269 10.8704C218.269 10.8704 200.018 4.48075 204.524 35.4946C204.524 35.4946 208.554 38.0984 211.632 36.4411C211.632 36.4411 209.501 14.8959 217.798 15.8424C226.094 16.7889 224.671 35.9699 224.671 35.9699C224.671 35.9699 229.412 37.3876 230.836 34.7718C232.259 32.156 230.36 6.62529 218.269 10.8704Z" fill="#3F3D56"/>
<path opacity="0.1" d="M217.798 14.4207C212.104 13.7737 211.321 23.7137 211.401 30.0155C211.469 23.7496 212.524 15.2394 217.798 15.8424C223.719 16.5173 224.691 26.4892 224.759 32.1361C224.827 26.9524 224.259 15.1595 217.798 14.4207Z" fill="black"/>
<path opacity="0.1" d="M204.524 34.0729C204.111 31.3581 203.875 28.6195 203.816 25.8742C203.796 29.0947 204.033 32.3116 204.524 35.4946C204.524 35.4946 208.554 38.0984 211.632 36.4411C211.632 36.4411 211.584 35.9299 211.528 35.0713C208.462 36.6168 204.524 34.0729 204.524 34.0729Z" fill="black"/>
<path opacity="0.1" d="M230.836 33.382C229.508 35.8101 225.306 34.7438 224.739 34.5801C224.711 35.4587 224.671 35.9858 224.671 35.9858C224.671 35.9858 229.412 37.4035 230.836 34.7878C231.128 34.2526 231.28 32.7391 231.236 30.7144C231.196 32.0123 231.056 32.9827 230.836 33.382Z" fill="black"/>
<path d="M330.543 268.75C332.438 265.243 330.287 260.946 327.816 257.819C325.345 254.692 322.327 251.43 322.39 247.436C322.482 241.705 328.568 238.327 333.433 235.288C337.04 233.035 340.367 230.363 343.345 227.329C344.544 226.111 345.692 224.809 346.392 223.251C347.399 221.015 347.371 218.459 347.307 216.015C347.097 207.839 346.697 199.673 346.108 191.518" stroke="#3F3D56" stroke-width="4" stroke-miterlimit="10"/>
<path d="M355.336 191.087C355.267 189.591 354.823 188.137 354.043 186.858C353.263 185.58 352.173 184.518 350.874 183.771L348.874 187.725L348.934 182.932C347.116 182.395 345.173 182.449 343.388 183.086C341.602 183.724 340.065 184.912 338.999 186.478C337.934 188.045 337.394 189.91 337.459 191.803C337.523 193.696 338.188 195.52 339.358 197.01C340.528 198.501 342.143 199.582 343.968 200.096C345.793 200.611 347.734 200.533 349.512 199.873C351.29 199.214 352.812 198.007 353.858 196.427C354.904 194.847 355.42 192.975 355.332 191.083L355.336 191.087Z" fill="#1B919E"/>
<path d="M339.391 251.545C338.453 253.367 336.916 254.812 335.038 255.636C333.161 256.461 331.056 256.615 329.078 256.074C327.1 255.532 325.368 254.328 324.173 252.663C322.979 250.997 322.394 248.972 322.517 246.927C322.639 244.882 323.463 242.941 324.848 241.43C326.233 239.92 328.097 238.931 330.126 238.629C332.155 238.328 334.225 238.733 335.991 239.776C337.757 240.818 339.109 242.436 339.823 244.357L334.225 248.898L340.37 247.472C340.374 248.888 340.038 250.285 339.391 251.545V251.545Z" fill="#1B919E"/>
<path d="M334.973 234.201C332.785 234.294 330.639 233.582 328.942 232.199C327.245 230.817 326.114 228.861 325.765 226.701C325.415 224.542 325.871 222.33 327.046 220.484C328.22 218.638 330.032 217.286 332.138 216.686L332.09 220.368L334.113 216.374H334.137C335.315 216.311 336.495 216.481 337.607 216.874C338.719 217.268 339.742 217.878 340.617 218.668C341.493 219.458 342.203 220.414 342.707 221.48C343.21 222.545 343.498 223.7 343.553 224.877C343.608 226.055 343.43 227.231 343.028 228.339C342.626 229.447 342.008 230.465 341.21 231.334C340.413 232.202 339.451 232.904 338.38 233.4C337.31 233.896 336.152 234.175 334.973 234.221V234.201Z" fill="#1B919E"/>
<path d="M356.683 219.773C355.3 219.837 353.92 219.58 352.654 219.022C351.387 218.464 350.267 217.619 349.383 216.555C348.498 215.49 347.873 214.236 347.557 212.889C347.241 211.542 347.242 210.141 347.56 208.795C347.879 207.449 348.506 206.195 349.392 205.132C350.278 204.069 351.399 203.226 352.667 202.67C353.935 202.114 355.314 201.859 356.697 201.926C358.081 201.993 359.429 202.38 360.637 203.056L359.038 207.381L362.288 204.266C363.59 205.458 364.509 207.009 364.929 208.722C365.35 210.435 365.253 212.234 364.651 213.892C364.05 215.551 362.97 216.994 361.549 218.041C360.127 219.087 358.427 219.69 356.663 219.773H356.683Z" fill="#1B919E"/>
<path opacity="0.1" d="M354.136 193.467C352.069 193.695 350.062 194.338 347.991 194.466C345.92 194.593 343.645 194.098 342.337 192.469C341.63 191.602 341.278 190.508 340.682 189.562C340.116 188.683 339.344 187.956 338.431 187.445C337.855 188.577 337.526 189.82 337.468 191.089C337.411 192.358 337.625 193.625 338.096 194.805C338.567 195.986 339.285 197.052 340.202 197.933C341.118 198.814 342.213 199.489 343.411 199.914C344.61 200.339 345.886 200.504 347.154 200.397C348.421 200.291 349.651 199.915 350.762 199.296C351.873 198.677 352.839 197.828 353.595 196.806C354.351 195.785 354.88 194.614 355.148 193.371C354.808 193.407 354.472 193.431 354.136 193.467Z" fill="black"/>
<path opacity="0.1" d="M356.683 219.773C355.142 219.843 353.608 219.515 352.231 218.819C350.855 218.123 349.681 217.084 348.825 215.802C347.969 214.519 347.459 213.038 347.345 211.501C347.231 209.964 347.517 208.424 348.175 207.029C348.887 207.506 349.498 208.118 349.974 208.83C350.61 209.789 350.998 210.899 351.745 211.782C353.137 213.415 355.519 213.95 357.678 213.854C359.838 213.758 361.917 213.143 364.076 212.944C364.375 212.92 364.675 212.9 364.979 212.892C364.534 214.784 363.483 216.48 361.986 217.722C360.489 218.963 358.627 219.684 356.683 219.773Z" fill="black"/>
<path opacity="0.1" d="M334.973 234.201C333.447 234.273 331.928 233.952 330.561 233.271C329.194 232.589 328.025 231.57 327.164 230.309C326.304 229.048 325.781 227.588 325.646 226.068C325.511 224.548 325.768 223.018 326.393 221.626C327.13 222.109 327.771 222.725 328.284 223.443C328.979 224.421 329.411 225.547 330.227 226.454C331.734 228.131 334.269 228.722 336.556 228.666C338.771 228.618 340.902 228.075 343.105 227.908C342.564 229.666 341.492 231.214 340.036 232.34C338.581 233.467 336.812 234.117 334.973 234.201V234.201Z" fill="black"/>
<path opacity="0.1" d="M339.391 251.545C338.354 253.598 336.566 255.173 334.396 255.942C332.227 256.711 329.845 256.615 327.745 255.674C325.645 254.733 323.988 253.02 323.121 250.89C322.253 248.761 322.241 246.38 323.086 244.241C323.824 244.724 324.485 245.313 325.049 245.99C325.901 247.025 326.461 248.199 327.448 249.161C329.275 250.954 332.226 251.693 334.853 251.761C336.368 251.778 337.884 251.706 339.391 251.545V251.545Z" fill="black"/>
<path d="M317.057 264.712C317.057 264.712 324.114 264.496 326.253 262.983C328.392 261.469 337.112 259.664 337.64 262.088C338.167 264.512 348.247 274.157 340.278 274.221C332.31 274.285 321.763 272.983 319.64 271.689C317.517 270.395 317.057 264.712 317.057 264.712Z" fill="#656380"/>
<path opacity="0.2" d="M340.406 273.394C332.438 273.458 321.891 272.152 319.768 270.862C318.168 269.876 317.509 266.349 317.293 264.72H317.057C317.057 264.72 317.505 270.407 319.628 271.697C321.751 272.987 332.298 274.293 340.266 274.229C342.565 274.229 343.361 273.394 343.317 272.184C342.997 272.907 342.122 273.362 340.406 273.394Z" fill="black"/>
<path d="M129.142 17.1163L121.845 21.7369L126.275 13.6899C125.025 12.6915 123.477 12.1378 121.877 12.1164H121.757C121.251 12.1235 120.745 12.0861 120.246 12.0046L117.771 13.5701L118.83 11.6452C117.079 11.0339 115.565 9.88662 114.504 8.36648L110.078 11.162L112.877 6.08217C110.286 2.97919 106.8 1.07426 102.958 1.07426C98.3556 1.07426 94.2574 3.80984 91.6106 8.07096C90.8278 9.34502 89.7218 10.3898 88.4046 11.0995C87.0875 11.8093 85.6059 12.1587 84.11 12.1124H83.8621C78.7804 12.1124 74.6663 17.8671 74.6663 24.9676C74.6663 32.0682 78.7844 37.8189 83.8621 37.8189C84.9774 37.8156 86.0751 37.5415 87.0607 37.0202C90.3752 35.2989 94.7252 35.267 98.1957 36.8045C99.6836 37.473 101.296 37.8203 102.927 37.8237C104.559 37.8271 106.173 37.4867 107.663 36.8245C111.11 35.3189 115.408 35.3509 118.702 37.0401C119.68 37.5567 120.767 37.8306 121.873 37.8388C126.955 37.8388 131.069 32.0841 131.069 24.9876C131.099 22.2437 130.436 19.5365 129.142 17.1163V17.1163Z" fill="#F2F2F2"/>
<path opacity="0.03" d="M115.384 35.9219C112.729 35.4177 109.984 35.7153 107.499 36.7766C106.009 37.4382 104.396 37.7783 102.765 37.7749C101.135 37.7715 99.5231 37.4245 98.0357 36.7566C94.5613 35.2191 90.2113 35.251 86.8968 36.9722C85.9112 37.4936 84.8135 37.7677 83.6982 37.771C79.1842 37.771 75.4299 33.2263 74.6463 27.236C75.548 26.5799 76.3138 25.7553 76.9013 24.8079C79.5641 20.5508 83.6462 17.8072 88.2481 17.8072C92.8501 17.8072 96.9002 20.5109 99.5471 24.724C100.337 25.997 101.442 27.0448 102.756 27.7661C104.07 28.4874 105.548 28.8578 107.048 28.8414H107.152C110.75 28.8454 113.869 31.7247 115.384 35.9219Z" fill="black"/>
<path d="M319.884 26.5251L316.257 28.8294L318.468 24.8359C317.844 24.3315 317.068 24.0504 316.265 24.0371H316.209C315.956 24.0407 315.703 24.022 315.454 23.9812L314.218 24.7799L314.738 23.7975C313.864 23.4935 313.109 22.9219 312.579 22.1642L310.372 23.5619L311.767 21.03C311.18 20.2731 310.432 19.6561 309.576 19.2237C308.721 18.7914 307.78 18.5544 306.821 18.53C304.523 18.53 302.479 19.8958 301.16 22.0204C300.768 22.6532 300.215 23.1712 299.558 23.5219C298.901 23.8725 298.162 24.0434 297.418 24.0172H297.294C294.759 24.0172 292.704 26.8885 292.704 30.4069C292.704 33.9252 294.759 36.8165 297.294 36.8165C297.851 36.8146 298.4 36.6775 298.893 36.4171C299.756 35.9985 300.699 35.772 301.658 35.7534C302.617 35.7348 303.568 35.9245 304.447 36.3093C305.19 36.6397 305.994 36.8105 306.807 36.8105C307.621 36.8105 308.425 36.6397 309.168 36.3093C310.04 35.9322 310.983 35.7466 311.933 35.7652C312.883 35.7838 313.818 36.0061 314.674 36.4171C315.167 36.6777 315.716 36.8147 316.273 36.8165C318.808 36.8165 320.863 33.9491 320.863 30.4069C320.867 29.0515 320.53 27.7168 319.884 26.5251V26.5251Z" fill="#F2F2F2"/>
<path opacity="0.03" d="M313.027 35.906C311.703 35.6563 310.335 35.805 309.096 36.3333C308.353 36.6637 307.549 36.8344 306.736 36.8344C305.922 36.8344 305.118 36.6637 304.375 36.3333C303.496 35.9483 302.544 35.7586 301.584 35.7773C300.624 35.7959 299.68 36.0224 298.817 36.4411C298.325 36.7025 297.776 36.8396 297.218 36.8405C294.963 36.8405 293.092 34.5761 292.7 31.5889C293.148 31.2645 293.531 30.858 293.827 30.3909C295.147 28.2663 297.194 26.9045 299.489 26.9045C301.784 26.9045 303.803 28.2503 305.122 30.3509C305.516 30.9864 306.067 31.5093 306.723 31.869C307.379 32.2286 308.117 32.4128 308.865 32.4036H308.925C310.72 32.3757 312.259 33.8133 313.027 35.906Z" fill="black"/>
<path d="M81.6991 86.2046L87.5605 89.9107L84.0101 83.4611C85.0168 82.6606 86.2618 82.218 87.5485 82.2031H87.6404C88.0421 82.2091 88.4434 82.1797 88.8399 82.1153L90.819 83.3692L89.9594 81.8277C91.3615 81.3353 92.5738 80.4163 93.4258 79.2L96.9722 81.4443L94.7572 77.3749C96.8323 74.8909 99.627 73.3814 102.702 73.3814C106.392 73.3814 109.674 75.5698 111.798 78.9723C112.423 79.9919 113.307 80.8284 114.36 81.3971C115.413 81.9658 116.598 82.2466 117.795 82.2111H117.995C122.065 82.2111 125.363 86.8196 125.363 92.5065C125.363 98.1933 122.065 102.806 117.995 102.806C117.098 102.802 116.216 102.582 115.424 102.163C114.038 101.49 112.523 101.127 110.983 101.097C109.443 101.068 107.914 101.373 106.504 101.991C105.309 102.525 104.015 102.8 102.706 102.8C101.397 102.8 100.102 102.525 98.9073 101.991C97.5069 101.385 95.9925 101.087 94.4666 101.117C92.9408 101.146 91.4391 101.503 90.0633 102.163C89.279 102.571 88.4086 102.786 87.5245 102.79C83.4503 102.79 80.1518 98.1813 80.1518 92.4905C80.1326 90.2989 80.6647 88.1375 81.6991 86.2046V86.2046Z" fill="#F2F2F2"/>
<path opacity="0.03" d="M92.7141 101.272C94.8415 100.872 97.04 101.111 99.0313 101.959C100.226 102.493 101.521 102.769 102.83 102.769C104.139 102.769 105.433 102.493 106.628 101.959C108.039 101.341 109.568 101.035 111.109 101.065C112.65 101.095 114.166 101.458 115.552 102.131C116.343 102.55 117.224 102.77 118.119 102.774C121.737 102.774 124.744 99.1358 125.371 94.3355C124.649 93.8077 124.036 93.1461 123.564 92.3867C121.441 88.9762 118.159 86.7957 114.468 86.7957C110.778 86.7957 107.539 88.9602 105.416 92.3388C104.785 93.3566 103.901 94.1945 102.85 94.7717C101.8 95.3488 100.618 95.6456 99.4191 95.6334H99.3272C96.4245 95.6055 93.9296 97.9137 92.7141 101.272Z" fill="black"/>
</svg>
