<svg width="41" height="41" viewBox="0 0 41 41" fill="none" xmlns="http://www.w3.org/2000/svg">
<path d="M20.5 0C9.17989 0 0 9.17989 0 20.5C0 31.8201 9.17989 41 20.5 41C31.8201 41 41 31.8201 41 20.5C41 9.17989 31.8201 0 20.5 0ZM14.5429 30.9902H9.55025V15.9696H14.5429V30.9902ZM12.0468 13.9186H12.0142C10.3388 13.9186 9.25528 12.7653 9.25528 11.3239C9.25528 9.84992 10.372 8.72852 12.0799 8.72852C13.7878 8.72852 14.8389 9.84992 14.8714 11.3239C14.8714 12.7653 13.7878 13.9186 12.0468 13.9186ZM32.5455 30.9902H27.5534V22.9546C27.5534 20.9351 26.8306 19.5578 25.0241 19.5578C23.6449 19.5578 22.8235 20.4869 22.4625 21.3837C22.3305 21.7046 22.2983 22.1532 22.2983 22.6021V30.9902H17.3059C17.3059 30.9902 17.3713 17.3788 17.3059 15.9696H22.2983V18.0964C22.9618 17.0729 24.1489 15.6171 26.7977 15.6171C30.0825 15.6171 32.5455 17.7639 32.5455 22.3775V30.9902Z" fill="#434140"/>
</svg>
