<svg width="208" height="189" viewBox="0 0 208 189" fill="none" xmlns="http://www.w3.org/2000/svg">
<g clip-path="url(#clip0)">
<path d="M204.745 189H0V188.411H204.852L204.745 189Z" fill="#3F3D56"/>
<path d="M152.055 79.9218H79.0829C78.7247 79.9214 78.3812 79.779 78.1279 79.5259C77.8745 79.2728 77.732 78.9296 77.7316 78.5717V45.3648C77.732 45.0068 77.8745 44.6637 78.1279 44.4106C78.3812 44.1575 78.7247 44.0151 79.0829 44.0146H152.055C152.413 44.0151 152.757 44.1575 153.01 44.4106C153.263 44.6637 153.406 45.0068 153.406 45.3648V78.5717C153.406 78.9296 153.263 79.2728 153.01 79.5259C152.757 79.779 152.413 79.9214 152.055 79.9218ZM79.0829 44.5547C78.868 44.5549 78.6619 44.6404 78.5099 44.7922C78.3579 44.9441 78.2724 45.15 78.2721 45.3648V78.5717C78.2724 78.7865 78.3579 78.9924 78.5099 79.1442C78.6619 79.2961 78.868 79.3815 79.0829 79.3818H152.055C152.27 79.3815 152.476 79.2961 152.628 79.1442C152.78 78.9924 152.865 78.7865 152.866 78.5717V45.3648C152.865 45.15 152.78 44.9441 152.628 44.7922C152.476 44.6404 152.27 44.5549 152.055 44.5547H79.0829Z" fill="#3F3D56"/>
<path d="M88.5423 60.078C91.6768 60.078 94.2178 57.5392 94.2178 54.4074C94.2178 51.2756 91.6768 48.7368 88.5423 48.7368C85.4077 48.7368 82.8667 51.2756 82.8667 54.4074C82.8667 57.5392 85.4077 60.078 88.5423 60.078Z" fill="#1B919E"/>
<path d="M101.65 50.627C101.399 50.627 101.159 50.7265 100.981 50.9038C100.804 51.081 100.704 51.3214 100.704 51.5721C100.704 51.8227 100.804 52.0631 100.981 52.2403C101.159 52.4176 101.399 52.5172 101.65 52.5172H146.244C146.495 52.5172 146.736 52.4176 146.913 52.2403C147.09 52.0631 147.19 51.8227 147.19 51.5721C147.19 51.3214 147.09 51.081 146.913 50.9038C146.736 50.7265 146.495 50.627 146.244 50.627H101.65Z" fill="#E6E6E6"/>
<path d="M101.65 56.2975C101.399 56.2975 101.159 56.3971 100.981 56.5743C100.804 56.7515 100.704 56.9919 100.704 57.2426C100.704 57.4932 100.804 57.7336 100.981 57.9109C101.159 58.0881 101.399 58.1877 101.65 58.1877H120.839C121.09 58.1877 121.331 58.0881 121.508 57.9109C121.685 57.7336 121.785 57.4932 121.785 57.2426C121.785 56.9919 121.685 56.7515 121.508 56.5743C121.331 56.3971 121.09 56.2975 120.839 56.2975H101.65Z" fill="#E6E6E6"/>
<path d="M84.1889 65.3632C83.4694 65.3632 82.8839 65.7872 82.8839 66.3083C82.8839 66.8293 83.4694 67.2534 84.1889 67.2534H145.715C146.434 67.2534 147.02 66.8293 147.02 66.3083C147.02 65.7872 146.434 65.3632 145.715 65.3632H84.1889Z" fill="#E6E6E6"/>
<path d="M84.1889 71.0337C83.4694 71.0337 82.8839 71.4577 82.8839 71.9788C82.8839 72.4998 83.4694 72.9239 84.1889 72.9239H145.715C146.434 72.9239 147.02 72.4998 147.02 71.9788C147.02 71.4577 146.434 71.0337 145.715 71.0337H84.1889Z" fill="#E6E6E6"/>
<path d="M206.649 35.9072H133.677C133.318 35.9068 132.975 35.7644 132.722 35.5113C132.468 35.2582 132.326 34.915 132.325 34.557V1.35014C132.326 0.992191 132.468 0.649022 132.722 0.395912C132.975 0.142802 133.318 0.000420209 133.677 0H206.649C207.007 0.000420923 207.35 0.142802 207.604 0.395912C207.857 0.649021 208 0.992191 208 1.35014V34.557C208 34.915 207.857 35.2582 207.604 35.5113C207.35 35.7644 207.007 35.9068 206.649 35.9072ZM133.677 0.540057C133.462 0.540291 133.256 0.625714 133.104 0.777584C132.952 0.929454 132.866 1.13537 132.866 1.35014V34.557C132.866 34.7718 132.952 34.9777 133.104 35.1296C133.256 35.2815 133.462 35.3669 133.677 35.3671H206.649C206.864 35.3669 207.07 35.2815 207.222 35.1296C207.374 34.9777 207.459 34.7718 207.459 34.557V1.35014C207.459 1.13537 207.374 0.929454 207.222 0.777584C207.07 0.625714 206.864 0.540291 206.649 0.540057H133.677Z" fill="#3F3D56"/>
<path d="M143.136 16.0632C146.271 16.0632 148.812 13.5244 148.812 10.3926C148.812 7.26086 146.271 4.72205 143.136 4.72205C140.001 4.72205 137.46 7.26086 137.46 10.3926C137.46 13.5244 140.001 16.0632 143.136 16.0632Z" fill="#1B919E"/>
<path d="M156.244 6.6123C155.993 6.6123 155.752 6.71188 155.575 6.88912C155.398 7.06636 155.298 7.30675 155.298 7.5574C155.298 7.80806 155.398 8.04845 155.575 8.22569C155.752 8.40293 155.993 8.5025 156.244 8.5025H200.838C201.089 8.5025 201.329 8.40293 201.507 8.22569C201.684 8.04845 201.784 7.80806 201.784 7.5574C201.784 7.30675 201.684 7.06636 201.507 6.88912C201.329 6.71188 201.089 6.6123 200.838 6.6123H156.244Z" fill="#E6E6E6"/>
<path d="M156.244 12.283C155.993 12.283 155.752 12.3825 155.575 12.5598C155.398 12.737 155.298 12.9774 155.298 13.2281C155.298 13.4787 155.398 13.7191 155.575 13.8963C155.752 14.0736 155.993 14.1732 156.244 14.1732H175.433C175.684 14.1732 175.924 14.0736 176.102 13.8963C176.279 13.7191 176.379 13.4787 176.379 13.2281C176.379 12.9774 176.279 12.737 176.102 12.5598C175.924 12.3825 175.684 12.283 175.433 12.283H156.244Z" fill="#E6E6E6"/>
<path d="M138.783 21.3485C138.063 21.3485 137.478 21.7725 137.478 22.2936C137.478 22.8147 138.063 23.2387 138.783 23.2387H200.309C201.028 23.2387 201.614 22.8147 201.614 22.2936C201.614 21.7725 201.028 21.3485 200.309 21.3485H138.783Z" fill="#E6E6E6"/>
<path d="M138.783 27.0192C138.063 27.0192 137.478 27.4432 137.478 27.9643C137.478 28.4853 138.063 28.9094 138.783 28.9094H200.309C201.028 28.9094 201.614 28.4853 201.614 27.9643C201.614 27.4432 201.028 27.0192 200.309 27.0192H138.783Z" fill="#E6E6E6"/>
<path d="M206.649 123.936H133.677C133.318 123.936 132.975 123.794 132.722 123.541C132.468 123.287 132.326 122.944 132.325 122.586V89.3794C132.326 89.0215 132.468 88.6783 132.722 88.4252C132.975 88.1721 133.318 88.0297 133.677 88.0293H206.649C207.007 88.0297 207.35 88.1721 207.604 88.4252C207.857 88.6783 208 89.0215 208 89.3794V122.586C208 122.944 207.857 123.287 207.604 123.541C207.35 123.794 207.007 123.936 206.649 123.936ZM133.677 88.5694C133.462 88.5696 133.256 88.655 133.104 88.8069C132.952 88.9588 132.866 89.1647 132.866 89.3794V122.586C132.866 122.801 132.952 123.007 133.104 123.159C133.256 123.311 133.462 123.396 133.677 123.396H206.649C206.864 123.396 207.07 123.311 207.222 123.159C207.374 123.007 207.459 122.801 207.459 122.586V89.3794C207.459 89.1647 207.374 88.9588 207.222 88.8069C207.07 88.655 206.864 88.5696 206.649 88.5694H133.677Z" fill="#3F3D56"/>
<path d="M143.136 104.093C146.271 104.093 148.812 101.554 148.812 98.4221C148.812 95.2903 146.271 92.7515 143.136 92.7515C140.001 92.7515 137.46 95.2903 137.46 98.4221C137.46 101.554 140.001 104.093 143.136 104.093Z" fill="#1B919E"/>
<path d="M156.244 94.6416C155.993 94.6416 155.752 94.7412 155.575 94.9184C155.398 95.0957 155.298 95.3361 155.298 95.5867C155.298 95.8374 155.398 96.0778 155.575 96.255C155.752 96.4322 155.993 96.5318 156.244 96.5318H200.838C201.089 96.5318 201.329 96.4322 201.507 96.255C201.684 96.0778 201.784 95.8374 201.784 95.5867C201.784 95.3361 201.684 95.0957 201.507 94.9184C201.329 94.7412 201.089 94.6416 200.838 94.6416H156.244Z" fill="#E6E6E6"/>
<path d="M156.244 100.312C155.993 100.312 155.752 100.412 155.575 100.589C155.398 100.766 155.298 101.007 155.298 101.257C155.298 101.508 155.398 101.748 155.575 101.926C155.752 102.103 155.993 102.202 156.244 102.202H175.433C175.684 102.202 175.924 102.103 176.102 101.926C176.279 101.748 176.379 101.508 176.379 101.257C176.379 101.007 176.279 100.766 176.102 100.589C175.924 100.412 175.684 100.312 175.433 100.312H156.244Z" fill="#E6E6E6"/>
<path d="M138.783 109.378C138.063 109.378 137.478 109.802 137.478 110.323C137.478 110.844 138.063 111.268 138.783 111.268H200.309C201.028 111.268 201.614 110.844 201.614 110.323C201.614 109.802 201.028 109.378 200.309 109.378H138.783Z" fill="#E6E6E6"/>
<path d="M138.783 115.048C138.063 115.048 137.478 115.472 137.478 115.993C137.478 116.515 138.063 116.939 138.783 116.939H200.309C201.028 116.939 201.614 116.515 201.614 115.993C201.614 115.472 201.028 115.048 200.309 115.048H138.783Z" fill="#E6E6E6"/>
<path d="M31.4251 108.649L28.9297 112.404C28.7213 112.776 28.5889 113.186 28.5403 113.609C28.4916 114.032 28.5278 114.461 28.6465 114.871C28.7653 115.28 28.9643 115.662 29.2321 115.993C29.4998 116.325 29.8309 116.6 30.2061 116.803C30.6734 117.056 31.1961 117.189 31.7275 117.19C32.2588 117.192 32.7823 117.062 33.2511 116.812C33.72 116.562 34.1196 116.2 34.4143 115.759C34.709 115.317 34.8897 114.809 34.9401 114.28L34.5306 110.799L36.4524 88.23L39.7306 73.3849L32.9243 71.4543L29.7563 88.1482L31.4251 108.649Z" fill="#9F616A"/>
<path d="M66.6205 179.872L60.0247 180.159L45.2175 129.469L29.0328 180.551L22.7436 180.446L32.9077 120.555C29.9173 112.368 31.8581 104.89 36.4925 97.7984L37.1894 93.3742L55.1494 93.0554L56.8372 109.838L66.6205 179.872Z" fill="#2F2E41"/>
<path d="M62.0362 188.887C62.9653 189.31 63.8583 185.776 64.5272 186.647C67.1145 190.016 72.1523 188.853 71.9782 188.317C72.1548 188.261 72.318 188.169 72.4579 188.047C72.5979 187.926 72.7117 187.777 72.7924 187.61C72.8732 187.443 72.9192 187.262 72.9277 187.077C72.9362 186.892 72.907 186.707 72.8419 186.533C72.764 186.326 72.6367 186.14 72.4711 185.992C72.3055 185.845 72.1065 185.739 71.8912 185.686L69.5598 185.103L65.8993 178.671L61.91 178.167L61.8092 178.332C61.038 179.573 60.5407 180.965 60.3506 182.415C60.1606 183.864 60.282 185.337 60.7069 186.735C61.0387 187.797 61.4903 188.638 62.0362 188.887Z" fill="#2F2E41"/>
<path d="M24.0286 188.887C24.9577 189.31 25.8507 185.776 26.5196 186.647C29.1069 190.016 34.1448 188.853 33.9706 188.317C34.1472 188.261 34.3104 188.169 34.4503 188.047C34.5903 187.926 34.7041 187.777 34.7849 187.61C34.8656 187.443 34.9116 187.262 34.9201 187.077C34.9286 186.892 34.8995 186.707 34.8343 186.533C34.7564 186.326 34.6292 186.14 34.4636 185.992C34.2979 185.845 34.0989 185.739 33.8836 185.686L31.5523 185.103L27.8917 178.671L23.9024 178.167L23.8016 178.332C23.0304 179.573 22.5331 180.965 22.343 182.415C22.153 183.864 22.2744 185.337 22.6993 186.735C23.0311 187.797 23.4827 188.638 24.0286 188.887Z" fill="#2F2E41"/>
<path d="M28.1904 84.4683L33.3794 66.7705C33.627 65.5069 34.3668 64.3933 35.4361 63.6747C36.5054 62.956 37.8167 62.6912 39.0814 62.9386C39.7076 63.061 40.3036 63.3055 40.8353 63.6581C41.3669 64.0107 41.8239 64.4644 42.18 64.9934C42.5361 65.5224 42.7845 66.1164 42.9109 66.7413C43.0373 67.3662 43.0393 68.0098 42.9167 68.6355L38.6743 84.7977C35.6006 81.5639 32.0686 81.731 28.1904 84.4683Z" fill="#1B919E"/>
<path d="M74.0589 67.9893L64.2315 70.1552L64.6541 62.3452H72.6822L77.8556 46.6801L77.7877 42.6262C77.6807 42.2522 77.6579 41.8591 77.721 41.4752C77.784 41.0912 77.9313 40.726 78.1523 40.4057C78.3733 40.0854 78.6625 39.8179 78.9991 39.6224C79.3358 39.427 79.7116 39.3084 80.0996 39.2751C80.5453 39.237 80.9934 39.3126 81.4018 39.495C81.8102 39.6774 82.1655 39.9606 82.4343 40.3178C82.703 40.6751 82.8765 41.0948 82.9383 41.5375C83.0002 41.9801 82.9484 42.4312 82.7878 42.8484L81.0197 47.6529L78.5977 62.3452C78.5977 63.6618 78.1478 64.939 77.3224 65.9653C76.4971 66.9917 75.3457 67.7057 74.0589 67.9893Z" fill="#9F616A"/>
<path d="M47.2246 56.9626C51.8917 56.9626 55.6752 53.1825 55.6752 48.5194C55.6752 43.8563 51.8917 40.0762 47.2246 40.0762C42.5574 40.0762 38.7739 43.8563 38.7739 48.5194C38.7739 53.1825 42.5574 56.9626 47.2246 56.9626Z" fill="#9F616A"/>
<path d="M48.8091 66.3558L36.3443 66.5669C38.3349 60.3304 39.7022 54.4993 39.5133 49.6804H49.0203C48.3888 55.2176 48.318 60.8044 48.8091 66.3558Z" fill="#9F616A"/>
<path d="M56.9428 94.535L36.5089 97.6397C33.2809 88.28 33.1859 77.4784 34.9083 69.4845C34.6964 67.579 34.9042 65.6503 35.5172 63.8336C36.1303 62.0169 37.1337 60.3562 38.457 58.9679L48.3865 60.0233C49.5309 60.2774 50.5826 60.8428 51.4253 61.657C52.268 62.4712 52.8689 63.5025 53.1614 64.6367C56.9925 69.9432 59.7992 74.9644 56.6951 78.339L56.9428 94.535Z" fill="#1B919E"/>
<path d="M69.3019 71.8438L50.9217 70.1552C49.633 70.1552 48.3971 69.6437 47.4858 68.7332C46.5745 67.8227 46.0626 66.5879 46.0626 65.3003C46.0626 64.0127 46.5745 62.7779 47.4858 61.8674C48.3971 60.9569 49.633 60.4454 50.9217 60.4454L67.6118 61.5008C65.0258 65.1358 65.8684 68.5669 69.3019 71.8438Z" fill="#1B919E"/>
<path d="M35.7105 64.3348L29.4675 64.1745C30.464 55.4547 30.983 45.6281 36.0747 40.5769C36.7225 39.9342 37.3041 39.2686 37.8845 38.6018C39.0404 37.2741 41.4899 36.512 43.9942 36.8013L45.2213 36.943C49.2498 37.4084 57.6997 40.2942 57.455 42.8151C57.3303 44.0987 57.2462 46.4081 54.1886 46.4371C51.7192 49.7475 47.3035 51.5856 49.1472 54.7303C52.836 58.0179 48.0361 60.6243 44.1654 62.5883C41.7923 63.7924 38.782 64.4136 35.7105 64.3348Z" fill="#2F2E41"/>
</g>
<defs>
<clipPath id="clip0">
<rect width="208" height="189" fill="white"/>
</clipPath>
</defs>
</svg>
