<svg width="243" height="197" viewBox="0 0 243 197" fill="none" xmlns="http://www.w3.org/2000/svg">
<g clip-path="url(#clip0)">
<path d="M163.717 180.916C152.407 180.946 141.108 180.206 129.898 178.701C129.532 178.655 129.161 178.602 128.793 178.547C126.041 178.156 123.288 177.709 120.612 177.219C108.568 175.017 97.211 171.802 86.8556 167.662C52.3952 153.884 30.7283 156.817 18.6206 161.702C5.51732 166.99 0.480371 175.641 0.431 175.728L0 175.483C0.0499715 175.395 5.1519 166.615 18.3983 161.258C26.1649 158.117 35.1748 156.744 45.1799 157.177C57.6687 157.717 71.7524 161.09 87.0398 167.202C97.3645 171.33 108.69 174.536 120.701 176.731C123.371 177.221 126.118 177.667 128.864 178.057C129.231 178.112 129.599 178.164 129.964 178.21C160.35 182.388 189.663 179.869 208.904 177.02C224.763 174.672 234.97 171.926 235.071 171.899L235.201 172.377C235.099 172.404 224.867 175.157 208.977 177.51C193.993 179.74 178.866 180.879 163.717 180.916V180.916Z" fill="#3F3D56"/>
<path d="M163.751 38.7554C155.015 38.7555 146.51 38.3469 138.304 37.5301C119.448 35.6531 102.139 31.6034 86.8556 25.4934C52.3952 11.7159 30.7283 14.6479 18.6206 19.5339C5.51732 24.8213 0.480371 33.4724 0.431 33.5591L0 33.3145C0.0499715 33.2265 5.1519 24.4469 18.3983 19.0895C26.165 15.9483 35.1748 14.5749 45.1799 15.0081C57.6687 15.5486 71.7524 18.9215 87.0398 25.0333C121.555 38.8323 159.961 39.3746 186.103 37.4012C214.437 35.2614 234.868 29.7853 235.071 29.7303L235.201 30.2082C234.997 30.2635 214.53 35.7502 186.151 37.8943C178.552 38.4684 171.07 38.7554 163.751 38.7554Z" fill="#3F3D56"/>
<path d="M162.468 2.39496C162.468 2.39496 152.725 -1.08286 146.462 12.8284C140.198 26.7397 130.456 42.0421 130.456 42.0421L136.023 43.4332C136.023 43.4332 137.415 33.6953 140.894 32.3042L139.503 44.8243C139.503 44.8243 181.258 59.4312 200.047 43.4332L199.352 38.5643C199.352 38.5643 202.135 39.2599 202.135 43.4332L204.223 41.3465C204.223 41.3465 202.135 37.1732 195.872 31.6086C191.761 27.9563 190.348 21.0079 189.863 16.6636C189.499 13.036 188.047 9.60306 185.697 6.81486C181.535 1.9935 173.951 -3.13092 162.468 2.39496Z" fill="#2F2E41"/>
<path d="M221.6 81.1135C221.6 81.1135 239.934 96.7434 242.63 105.906C245.327 115.068 232.385 116.146 232.385 116.146L204.345 118.841C204.345 118.841 203.806 131.776 198.952 133.393C194.099 135.01 197.967 112.003 197.967 112.003L225.375 104.289L212.973 91.3538L221.6 81.1135Z" fill="#FBBEBE"/>
<path d="M135.862 97.2823L133.705 125.847L121.842 174.354C121.842 174.354 111.057 196.451 120.224 196.99C129.391 197.529 128.852 175.971 128.852 175.971L146.107 130.159L147.725 98.8992L135.862 97.2823Z" fill="#FBBEBE"/>
<path d="M166.059 47.159C175.887 47.159 183.854 39.1961 183.854 29.3733C183.854 19.5506 175.887 11.5876 166.059 11.5876C156.231 11.5876 148.264 19.5506 148.264 29.3733C148.264 39.1961 156.231 47.159 166.059 47.159Z" fill="#FBBEBE"/>
<path d="M157.971 37.9967C157.971 37.9967 164.441 61.172 154.196 67.1006C143.951 73.0291 180.079 77.3408 189.785 59.5551C189.785 59.5551 172.53 53.6266 177.383 37.9967H157.971Z" fill="#FBBEBE"/>
<path d="M145.568 69.7953L142.333 68.7174C142.333 68.7174 135.862 71.4122 135.862 76.2629C135.862 81.1135 134.784 100.516 134.784 100.516L149.343 102.133L145.568 69.7953Z" fill="#1B919E"/>
<path d="M208.94 177.265C189.034 180.212 160.021 182.592 129.932 178.456C129.93 178.159 129.93 177.869 129.93 177.587C129.93 175.905 129.994 174.242 130.123 172.598C131.664 152.358 142.097 135.484 146.134 129.636C146.337 129.339 146.525 129.071 146.694 128.833C147.345 127.919 147.725 127.436 147.725 127.436C147.725 127.436 179 126.926 195.177 133.393C195.957 133.72 196.671 134.187 197.283 134.77C203.315 140.333 206.859 158.394 208.94 177.265Z" fill="#2F2E41"/>
<path d="M197.335 62.2499C197.335 62.2499 204.345 58.4772 211.355 66.5616L225.375 82.7304L214.59 94.5875L194.099 82.1915L197.335 62.2499Z" fill="#1B919E"/>
<path d="M146.83 29.4861C153.13 24.9294 158.229 19.681 161.602 13.4378C161.602 13.4378 173.163 26.2765 180.228 26.9184C187.293 27.5603 180.87 11.512 180.87 11.512L168.025 8.30237L155.822 9.58623L146.188 16.0056L146.83 29.4861Z" fill="#2F2E41"/>
<path d="M187.089 58.4772C187.089 58.4772 179.543 70.4026 156.894 64.7094L144.041 68.2473L142.333 68.7175C142.333 68.7175 143.951 101.055 148.264 106.984C152.578 112.912 151.5 116.146 150.421 116.685C149.343 117.224 146.647 116.146 148.264 118.841C149.882 121.536 152.039 119.919 149.882 121.536C147.725 123.152 146.647 129.081 146.647 129.081L197.335 135.549C197.335 135.549 195.717 114.529 200.031 103.75C204.345 92.9707 205.423 88.659 205.423 88.659L202.188 61.711L187.089 58.4772Z" fill="#1B919E"/>
<path d="M81.7437 47.9261H12.358V134.614H81.7437V47.9261Z" fill="#E6E6E6"/>
<path d="M32.0586 55.2327H17.1902V65.1399H32.0586V55.2327Z" fill="white"/>
<path d="M74.8052 74.5518H17.3141V78.0193H74.8052V74.5518Z" fill="white"/>
<path d="M74.8052 83.7159H17.3141V87.1834H74.8052V83.7159Z" fill="white"/>
<path d="M74.8052 92.8801H17.3141V96.3476H74.8052V92.8801Z" fill="white"/>
<path d="M74.8052 102.044H17.3141V105.512H74.8052V102.044Z" fill="white"/>
<path d="M74.8052 111.208H17.3141V114.676H74.8052V111.208Z" fill="white"/>
<path d="M95.3731 134.49C95.37 137.762 94.1859 140.922 92.0383 143.391C89.8907 145.859 86.9239 147.471 83.6831 147.928C80.4423 148.386 77.1451 147.659 74.3974 145.881C71.6497 144.104 69.636 141.395 68.7264 138.253C67.8168 135.11 68.0723 131.745 69.446 128.776C70.8198 125.807 73.2194 123.433 76.2041 122.09C79.1887 120.747 82.5579 120.527 85.6925 121.468C88.8271 122.409 91.5165 124.449 93.2667 127.214C94.6431 129.391 95.3735 131.914 95.3731 134.49V134.49Z" fill="#1B919E"/>
<path d="M93.2667 127.213L79.8505 140.62C79.0073 139.316 74.3096 133.252 74.3096 133.252C74.9116 132.644 75.5541 132.077 76.2325 131.555L80.1281 136.747L91.6956 125.185C92.2823 125.81 92.8083 126.489 93.2667 127.213V127.213Z" fill="white"/>
</g>
<defs>
<clipPath id="clip0">
<rect width="243" height="197" fill="white"/>
</clipPath>
</defs>
</svg>
