<svg width="607" height="499" viewBox="0 0 607 499" fill="none" xmlns="http://www.w3.org/2000/svg">
<g clip-path="url(#clip0)">
<path d="M536.11 404.429C523.882 428.278 508.371 451.342 488.747 472.218C488.311 472.689 487.871 473.148 487.426 473.616L440.93 451.618C441.215 451.146 441.527 450.616 441.862 450.036C461.835 415.884 582.402 207.556 578.592 160.373C579.036 164.264 593.327 292.959 536.11 404.429Z" fill="#E6E6E6"/>
<path d="M497.717 476.462C497.066 476.831 496.399 477.193 495.727 477.543L460.847 461.041C461.334 460.695 461.902 460.286 462.555 459.826C473.241 452.159 505.017 429.154 536.11 404.43C569.524 377.861 602.154 349.313 607 335.686C606.016 338.811 575.432 433.795 497.717 476.462Z" fill="#E6E6E6"/>
<path d="M179.658 499C278.88 499 359.316 491.041 359.316 481.223C359.316 471.406 278.88 463.447 179.658 463.447C80.4356 463.447 0 471.406 0 481.223C0 491.041 80.4356 499 179.658 499Z" fill="#E6E6E6"/>
<path d="M81.2849 489.578C111.014 489.578 135.115 465.492 135.115 435.782C135.115 406.071 111.014 381.986 81.2849 381.986C51.5553 381.986 27.4548 406.071 27.4548 435.782C27.4548 465.492 51.5553 489.578 81.2849 489.578Z" fill="#1B919E"/>
<path d="M102.847 413.207H59.7223C57.8167 413.209 55.9898 413.966 54.6423 415.313C53.2949 416.659 52.5369 418.485 52.5348 420.389V451.174C52.5369 453.078 53.2949 454.904 54.6423 456.25C55.9898 457.597 57.8167 458.354 59.7223 458.357H102.847C104.753 458.354 106.58 457.597 107.927 456.25C109.275 454.904 110.033 453.078 110.035 451.174V420.389C110.033 418.485 109.275 416.659 107.927 415.313C106.58 413.966 104.753 413.209 102.847 413.207ZM102.847 417.311C103.105 417.312 103.361 417.346 103.61 417.411L81.2899 435.204L59.0999 417.374C59.3047 417.332 59.5132 417.311 59.7223 417.311H102.847ZM102.847 454.252H59.7223C58.9056 454.251 58.1227 453.926 57.5452 453.349C56.9677 452.772 56.6429 451.99 56.6419 451.174V420.666L79.9981 439.433C80.3619 439.725 80.8143 439.885 81.281 439.886C81.7476 439.887 82.2007 439.729 82.5655 439.438L105.928 420.813V451.174C105.927 451.99 105.602 452.772 105.025 453.349C104.447 453.926 103.664 454.251 102.847 454.252Z" fill="white"/>
<path d="M229.052 299.428L185.067 302.255L173.27 260.522L211.929 251.468L229.052 299.428Z" fill="#2F2E41"/>
<path d="M289.028 354.079L301.072 354.178C302.291 354.188 303.497 353.933 304.607 353.429C305.717 352.925 306.703 352.186 307.497 351.262C308.292 350.338 308.875 349.252 309.206 348.08C309.537 346.908 309.608 345.677 309.415 344.475C309.207 343.181 308.697 341.953 307.928 340.892C307.159 339.83 306.15 338.964 304.985 338.362C303.819 337.761 302.529 337.442 301.217 337.43C299.905 337.418 298.609 337.714 297.433 338.294L286.075 343.895L247.225 352.554L230.581 335.548L221.021 351.284L243.48 368.625L289.028 354.079Z" fill="#FFB8B8"/>
<path d="M286.77 478.441L272.58 481.168C262.887 450.633 252.385 421.717 252.385 399.351C238.668 414.608 221.657 423.337 201.627 426.078L203.81 392.26L220.183 383.533L245.243 371.975C247.438 370.962 249.804 370.377 252.218 370.25C256.909 370.004 261.526 371.5 265.18 374.451C268.834 377.403 271.266 381.601 272.008 386.237L286.77 478.441Z" fill="#FFB8B8"/>
<path d="M284.587 464.805C284.587 464.805 285.948 464.229 291.382 471.336C291.382 471.336 308.736 474.565 305.866 482.385C302.996 490.205 280.682 489.959 278.562 488.765C276.442 487.57 259.565 487.595 260.732 482.281C261.898 476.968 268.621 471.03 268.621 471.03C268.621 471.03 271.712 477.289 276.516 477.315C282.95 477.35 285.133 471.896 284.041 466.442C284.031 466.39 284.628 464.838 284.587 464.805Z" fill="#2F2E41"/>
<path d="M175.392 446.206C175.392 446.206 177.518 452.014 167.946 455.514C167.946 455.514 158.557 473.279 151.019 467.513C143.482 461.746 151.304 437.581 153.321 435.681C155.339 433.782 161.026 415.433 166.413 418.5C171.799 421.566 175.984 430.882 175.984 430.882C175.984 430.882 158.641 436.448 166.845 449.331C166.845 449.331 170.422 449.573 175.392 446.206Z" fill="#2F2E41"/>
<path d="M195.227 292.159C205.098 292.159 213.1 284.162 213.1 274.298C213.1 264.434 205.098 256.437 195.227 256.437C185.357 256.437 177.355 264.434 177.355 274.298C177.355 284.162 185.357 292.159 195.227 292.159Z" fill="#FFB8B8"/>
<path d="M210.632 321.625H179.522L172.972 302.535C184.327 299.071 181.675 289.235 179.522 279.626H210.632C204.601 291.647 197.108 308.661 211.724 311.807L210.632 321.625Z" fill="#FFB8B8"/>
<path d="M218.819 421.987L213.163 426.283C210.731 428.13 207.858 429.31 204.829 429.704C201.8 430.099 198.72 429.695 195.896 428.533C179.696 416.398 166.484 420.034 156.053 438.351C143.541 424.239 142.158 403.801 153.324 382.715L215.271 384.079L227.825 380.261L218.819 421.987Z" fill="#2F2E41"/>
<path d="M198.188 485.184C194.639 486.275 190.818 486.084 187.395 484.643C183.973 483.202 181.167 480.603 179.469 477.302C173.902 472.401 169.205 465.385 165.13 456.854C162.207 450.595 159.697 444.152 157.616 437.566C154.797 428.864 159.511 419.358 168.285 416.755C168.546 416.677 168.81 416.604 169.077 416.536C180.789 413.531 192.817 420.282 196.82 431.684L208.462 464.842C209.167 466.85 209.459 468.979 209.321 471.102C209.182 473.225 208.617 475.299 207.657 477.198C206.698 479.097 205.365 480.784 203.738 482.156C202.111 483.528 200.223 484.558 198.188 485.184Z" fill="#FFB8B8"/>
<path opacity="0.2" d="M163.148 453.078C163.148 453.078 176.793 468.35 179.522 477.078L163.148 453.078Z" fill="black"/>
<path d="M110.228 381.001L105.661 392.14C105.199 393.267 104.989 394.481 105.045 395.698C105.1 396.914 105.421 398.104 105.984 399.185C106.547 400.265 107.339 401.209 108.305 401.952C109.271 402.695 110.388 403.218 111.577 403.485C112.857 403.773 114.186 403.756 115.458 403.437C116.73 403.117 117.91 402.504 118.901 401.646C119.893 400.788 120.669 399.709 121.167 398.496C121.666 397.284 121.872 395.971 121.77 394.664L120.786 382.044L127.176 342.782L149.158 333.657L138.09 318.94L113.636 333.336L110.228 381.001Z" fill="#FFB8B8"/>
<path d="M219.365 382.715C203.683 409.04 178.463 404.42 151.686 383.806C162.979 375.368 156.053 351.079 146.229 349.443C136.07 347.751 134.848 326.988 130.946 316.716L178.43 299.262L191.256 309.352L204.083 306.353L209.341 308.217C212.763 309.431 215.731 311.663 217.846 314.612C219.961 317.562 221.122 321.088 221.172 324.717C210.396 340.274 202.419 356.871 219.365 382.715Z" fill="#1B919E"/>
<path d="M225.369 361.443C225.369 361.443 222.952 348.989 215.018 352.898C207.084 356.806 206.539 345.897 206.539 345.897L212.815 309.625L238.468 336.898L225.369 361.443Z" fill="#1B919E"/>
<path d="M211.92 251.311C211.92 251.311 220.978 254.705 221.105 266.756C221.1 268.783 220.811 270.8 220.247 272.748C219.638 274.957 219.123 279.757 223.028 286.197C225.581 290.377 227.883 294.704 229.924 299.156L219.684 300.052L218.142 283.086C217.394 274.861 215.439 266.791 212.339 259.134L212.274 258.975C212.274 258.975 207.508 267.086 198.589 266.756L201.892 263.691C201.892 263.691 190.681 267.797 184.598 268.588C183.903 268.678 183.247 268.956 182.699 269.392C182.151 269.827 181.732 270.404 181.488 271.06C181.244 271.716 181.183 272.426 181.313 273.113C181.443 273.801 181.757 274.44 182.224 274.962C182.259 275.001 182.295 275.041 182.332 275.08C186.013 279.042 193.327 288.238 188.608 295.077C183.889 301.915 187.641 303.967 187.641 303.967L180.775 299.887L177.66 297.859L177.566 300.406L161.072 297.883C161.072 297.883 156.636 297.081 166.594 286.611C166.594 286.611 169.273 282.502 168.303 278.836C167.498 276.047 167.368 273.107 167.925 270.258C170.508 258.402 179.786 234.984 211.92 251.311Z" fill="#2F2E41"/>
<path d="M537.814 116.297H535.123V42.6333C535.123 31.3263 530.628 20.4823 522.628 12.487C514.628 4.49171 503.777 0 492.463 0H336.297C324.983 0 314.132 4.49171 306.131 12.487C298.131 20.4823 293.636 31.3263 293.636 42.6333V446.758C293.636 458.065 298.131 468.909 306.131 476.904C314.132 484.9 324.983 489.391 336.297 489.391H492.462C503.776 489.391 514.627 484.9 522.627 476.904C530.628 468.909 535.122 458.065 535.122 446.758V168.732H537.814L537.814 116.297Z" fill="#3F3D56"/>
<path d="M494.184 11.0906H473.799C474.737 13.3876 475.095 15.8799 474.842 18.3479C474.589 20.8159 473.732 23.1837 472.348 25.2429C470.963 27.302 469.093 28.9892 466.902 30.1558C464.711 31.3224 462.267 31.9326 459.784 31.9325H370.319C367.837 31.9323 365.393 31.3221 363.203 30.1556C361.012 28.989 359.142 27.302 357.758 25.2432C356.373 23.1843 355.517 20.8168 355.263 18.3492C355.01 15.8815 355.368 13.3895 356.305 11.0926H337.263C328.813 11.0926 320.71 14.4471 314.735 20.4181C308.76 26.3891 305.404 34.4875 305.404 42.9318V446.461C305.404 454.906 308.76 463.004 314.735 468.975C320.71 474.946 328.813 478.301 337.263 478.301H494.178C502.627 478.301 510.731 474.946 516.706 468.975C522.68 463.004 526.037 454.906 526.037 446.461V446.461V42.9297C526.037 34.4855 522.68 26.387 516.706 20.416C510.731 14.445 502.627 11.0906 494.178 11.0906H494.184V11.0906Z" fill="white"/>
<path d="M415.993 455.75C425.655 455.75 433.488 447.922 433.488 438.266C433.488 428.61 425.655 420.783 415.993 420.783C406.331 420.783 398.498 428.61 398.498 438.266C398.498 447.922 406.331 455.75 415.993 455.75Z" fill="#E6E6E6"/>
<path d="M345.02 276.577C343.367 276.577 342.021 278.112 342.021 279.999C342.021 281.885 343.367 283.42 345.02 283.42H486.42C488.074 283.42 489.42 281.885 489.42 279.999C489.42 278.112 488.074 276.577 486.42 276.577H345.02Z" fill="#E6E6E6"/>
<path d="M345.02 357.271C343.367 357.271 342.021 358.807 342.021 360.693C342.021 362.579 343.367 364.114 345.02 364.114H486.42C488.074 364.114 489.42 362.579 489.42 360.693C489.42 358.807 488.074 357.271 486.42 357.271H345.02Z" fill="#E6E6E6"/>
<path d="M345.02 297.105C343.367 297.105 342.021 298.64 342.021 300.527C342.021 302.413 343.367 303.948 345.02 303.948H405.865C407.519 303.948 408.865 302.413 408.865 300.527C408.865 298.64 407.519 297.105 405.865 297.105H345.02Z" fill="#E6E6E6"/>
<path d="M345.02 316.673C343.367 316.673 342.021 318.208 342.021 320.094C342.021 321.98 343.367 323.515 345.02 323.515H486.42C488.074 323.515 489.42 321.98 489.42 320.094C489.42 318.208 488.074 316.673 486.42 316.673H345.02Z" fill="#E6E6E6"/>
<path d="M345.02 337.201C343.367 337.201 342.021 338.736 342.021 340.622C342.021 342.509 343.367 344.044 345.02 344.044H405.865C407.519 344.044 408.865 342.509 408.865 340.622C408.865 338.736 407.519 337.201 405.865 337.201H345.02Z" fill="#E6E6E6"/>
<path d="M371.714 120.79H459.735C460.708 120.791 461.64 121.178 462.327 121.865C463.015 122.552 463.402 123.484 463.403 124.455V216.068C463.402 217.04 463.015 217.971 462.327 218.658C461.64 219.346 460.708 219.732 459.735 219.733H371.714C370.742 219.732 369.81 219.346 369.122 218.658C368.434 217.971 368.048 217.04 368.046 216.068V124.455C368.048 123.484 368.434 122.552 369.122 121.865C369.81 121.178 370.742 120.791 371.714 120.79Z" fill="#1B919E"/>
<path d="M440.98 200.841C441.307 200.842 441.631 200.778 441.934 200.653C442.236 200.528 442.511 200.345 442.743 200.114C442.975 199.883 443.158 199.608 443.284 199.306C443.409 199.004 443.474 198.68 443.474 198.353C443.474 198.026 443.409 197.702 443.284 197.399C443.158 197.097 442.975 196.823 442.743 196.592C442.511 196.361 442.236 196.177 441.934 196.053C441.631 195.928 441.307 195.864 440.98 195.864H390.47C390.142 195.864 389.818 195.928 389.516 196.053C389.213 196.177 388.938 196.361 388.706 196.592C388.475 196.823 388.291 197.097 388.166 197.399C388.04 197.702 387.976 198.026 387.976 198.353C387.976 198.68 388.04 199.004 388.166 199.306C388.291 199.608 388.475 199.883 388.706 200.114C388.938 200.345 389.213 200.528 389.516 200.653C389.818 200.778 390.142 200.842 390.47 200.841H440.98Z" fill="white"/>
<path d="M440.98 186.18C441.64 186.18 442.273 185.918 442.74 185.451C443.207 184.985 443.47 184.352 443.47 183.692C443.47 183.032 443.207 182.399 442.74 181.932C442.273 181.466 441.64 181.203 440.98 181.203H390.47C390.143 181.203 389.819 181.268 389.517 181.393C389.215 181.518 388.94 181.701 388.709 181.932C388.478 182.163 388.294 182.438 388.169 182.739C388.044 183.041 387.98 183.365 387.98 183.692C387.98 184.019 388.044 184.342 388.169 184.644C388.294 184.946 388.478 185.22 388.709 185.451C388.94 185.682 389.215 185.866 389.517 185.991C389.819 186.116 390.143 186.18 390.47 186.18H440.98Z" fill="white"/>
<path d="M415.725 139.682C418.824 139.682 421.855 140.601 424.432 142.322C427.009 144.043 429.018 146.489 430.204 149.351C431.391 152.213 431.701 155.363 431.096 158.401C430.492 161.439 428.999 164.23 426.807 166.421C424.615 168.611 421.822 170.103 418.782 170.708C415.742 171.312 412.591 171.002 409.727 169.816C406.863 168.631 404.415 166.623 402.693 164.047C400.971 161.472 400.052 158.443 400.052 155.345C400.056 151.193 401.709 147.212 404.647 144.275C407.585 141.339 411.569 139.687 415.725 139.682Z" fill="white"/>
</g>
<defs>
<clipPath id="clip0">
<rect width="607" height="499" fill="white"/>
</clipPath>
</defs>
</svg>
