<svg width="216" height="176" viewBox="0 0 216 176" fill="none" xmlns="http://www.w3.org/2000/svg">
<g clip-path="url(#clip0)">
<path d="M154.312 39.8452H152.777C152.474 39.8452 152.229 40.0861 152.229 40.3834V60.5985C152.229 60.8957 152.474 61.1366 152.777 61.1366H154.312C154.614 61.1366 154.86 60.8957 154.86 60.5985V40.3834C154.86 40.0861 154.614 39.8452 154.312 39.8452Z" fill="#3F3D56"/>
<path d="M144.317 0H74.9633C69.8099 0 65.6323 4.10216 65.6323 9.16242V166.485C65.6323 171.545 69.8099 175.648 74.9633 175.648H144.317C149.47 175.648 153.648 171.545 153.648 166.485V9.16242C153.648 4.10216 149.47 0 144.317 0Z" fill="#3F3D56"/>
<path d="M141.398 4.5752H131.301V5.76779C131.301 6.51013 131.152 7.24521 130.863 7.931C130.573 8.6168 130.149 9.23989 129.615 9.76466C129.08 10.2894 128.445 10.7056 127.747 10.9894C127.048 11.2732 126.299 11.4191 125.543 11.4187H93.4343C92.6783 11.4191 91.9296 11.2732 91.2311 10.9894C90.5325 10.7056 89.8977 10.2894 89.363 9.76466C88.8283 9.23989 88.4041 8.6168 88.1147 7.931C87.8253 7.24521 87.6763 6.51013 87.6763 5.76779V4.5752H78.2233C76.3694 4.5752 74.5914 5.29836 73.2805 6.5856C71.9695 7.87284 71.2331 9.61871 71.2331 11.4391V164.221C71.2331 166.041 71.9695 167.787 73.2805 169.074C74.5914 170.361 76.3694 171.084 78.2233 171.084H141.398C143.252 171.084 145.029 170.361 146.34 169.074C147.651 167.787 148.388 166.041 148.388 164.221V11.4509C148.389 10.5485 148.21 9.65469 147.859 8.82056C147.509 7.98643 146.994 7.22837 146.345 6.58975C145.695 5.95113 144.924 5.44448 144.075 5.0988C143.227 4.75312 142.317 4.57519 141.398 4.5752Z" fill="white"/>
<path d="M112.515 5.24561H102.077C101.565 5.24561 101.15 5.65277 101.15 6.15503V6.78552C101.15 7.28779 101.565 7.69495 102.077 7.69495H112.515C113.026 7.69495 113.441 7.28779 113.441 6.78552V6.15503C113.441 5.65277 113.026 5.24561 112.515 5.24561Z" fill="#E6E8EC"/>
<path d="M116.717 7.86121C117.499 7.86121 118.133 7.23847 118.133 6.47028C118.133 5.70209 117.499 5.07935 116.717 5.07935C115.934 5.07935 115.3 5.70209 115.3 6.47028C115.3 7.23847 115.934 7.86121 116.717 7.86121Z" fill="#E6E8EC"/>
<path d="M110.178 106.329C119.373 106.329 126.828 99.0095 126.828 89.9801C126.828 80.9507 119.373 73.6309 110.178 73.6309C100.982 73.6309 93.5276 80.9507 93.5276 89.9801C93.5276 99.0095 100.982 106.329 110.178 106.329Z" fill="white"/>
<path d="M132.077 87.6973C132.077 92.0191 130.772 96.2438 128.326 99.8372C125.881 103.431 122.405 106.231 118.339 107.885C114.273 109.539 109.798 109.971 105.482 109.128C101.165 108.285 97.1998 106.203 94.0877 103.147C90.9756 100.091 88.8563 96.1977 87.9978 91.9589C87.1393 87.7201 87.5801 83.3266 89.2645 79.3338C90.949 75.341 93.8014 71.9284 97.461 69.5275C101.121 67.1265 105.423 65.8451 109.824 65.8452C112.747 65.8453 115.641 66.4106 118.34 67.5088C121.04 68.607 123.493 70.2167 125.56 72.2458C127.626 74.275 129.265 76.6839 130.383 79.3351C131.502 81.9863 132.077 84.8277 132.077 87.6973ZM107.252 99.2637L123.759 83.0545C123.893 82.9237 123.999 82.7683 124.071 82.5972C124.144 82.4261 124.181 82.2426 124.181 82.0573C124.181 81.8721 124.144 81.6886 124.071 81.5175C123.999 81.3464 123.893 81.191 123.759 81.0601L121.728 79.0803C121.595 78.9492 121.437 78.8452 121.263 78.7742C121.089 78.7032 120.903 78.6667 120.714 78.6667C120.526 78.6667 120.339 78.7032 120.165 78.7742C119.991 78.8452 119.833 78.9492 119.7 79.0803L106.237 92.3008L99.9502 86.1134C99.6804 85.8499 99.3152 85.702 98.9347 85.702C98.5541 85.702 98.189 85.8499 97.9191 86.1134L95.888 88.1196C95.6197 88.3846 95.469 88.7431 95.469 89.1168C95.469 89.4905 95.6197 89.849 95.888 90.114L105.221 99.2755C105.355 99.4067 105.513 99.5107 105.687 99.5817C105.861 99.6528 106.048 99.6893 106.237 99.6893C106.426 99.6893 106.612 99.6528 106.787 99.5817C106.961 99.5107 107.119 99.4067 107.253 99.2755L107.252 99.2637Z" fill="#1B919E"/>
<path d="M68.3881 34.6279H68.1576C67.8549 34.6279 67.6096 34.8689 67.6096 35.1661V40.3907C67.6096 40.6879 67.8549 40.9288 68.1576 40.9288H68.3881C68.6907 40.9288 68.9361 40.6879 68.9361 40.3907V35.1661C68.9361 34.8689 68.6907 34.6279 68.3881 34.6279Z" fill="#3F3D56"/>
<path d="M68.5082 46.1655H68.1095C67.8068 46.1655 67.5615 46.4065 67.5615 46.7037V56.5936C67.5615 56.8908 67.8068 57.1318 68.1095 57.1318H68.5082C68.8109 57.1318 69.0562 56.8908 69.0562 56.5936V46.7037C69.0562 46.4065 68.8109 46.1655 68.5082 46.1655Z" fill="#3F3D56"/>
<path d="M68.4601 60.969H68.1334C67.8308 60.969 67.5854 61.2099 67.5854 61.5071V71.4913C67.5854 71.7885 67.8308 72.0295 68.1334 72.0295H68.4601C68.7628 72.0295 69.0081 71.7885 69.0081 71.4913V61.5071C69.0081 61.2099 68.7628 60.969 68.4601 60.969Z" fill="#3F3D56"/>
<path d="M49.9554 90.2166C49.9934 90.2526 50.0423 90.2756 50.0947 90.2822C50.1471 90.2888 50.2003 90.2787 50.2464 90.2532C50.1481 90.2547 50.0501 90.2423 49.9554 90.2166Z" fill="url(#paint0_linear)"/>
<path d="M60.9551 94.4414L60.6679 95.9773L60.4463 97.1523L60.0433 99.3015L56.1355 101.988C56.1355 101.988 55.7832 101.692 55.2022 101.225C53.6007 99.9304 50.2347 97.2937 47.763 95.8784C47.1272 95.4805 46.4394 95.1693 45.7183 94.9532L60.9551 94.4414Z" fill="#FEB9B9"/>
<path d="M58.0884 95.5842C58.0884 95.5842 62.6447 96.3521 62.9116 94.4414C63.1784 92.5306 60.5662 91.4981 58.3526 91.3695C56.1389 91.241 42.8525 92.1375 42.8525 92.1375C42.8525 92.1375 40.5088 95.2068 48.973 95.7204L58.0884 95.5842Z" fill="#3F3D56"/>
<path d="M68.0526 32.5337H44.2166V60.2874H68.0526V32.5337Z" fill="#2F2E41"/>
<path opacity="0.1" d="M68.0526 32.6597H44.2166V60.4134H68.0526V32.6597Z" fill="black"/>
<path d="M16.2808 80.0442C15.8883 80.1413 15.3867 80.5142 14.8288 81.0533C12.4266 83.3887 8.9859 88.8692 8.9859 88.8692C4.587 83.724 9.45472 79.6589 11.5296 78.2618C12.0341 77.9237 12.373 77.7375 12.373 77.7375L16.2808 80.0442Z" fill="#FEB9B9"/>
<path d="M60.6935 41.293C60.6935 41.293 61.8662 49.35 65.9037 51.2685C69.9412 53.187 60.6935 56.7725 60.6935 56.7725L48.0602 52.1647C48.0602 52.1647 55.2244 49.8618 53.7909 43.0829L60.6935 41.293Z" fill="#FEB9B9"/>
<path d="M47.1474 89.7656L46.8617 91.2964L46.6296 92.4758L46.2265 94.625L42.3187 97.3089C42.3187 97.3089 41.9665 97.0154 41.3854 96.5489C39.7839 95.2541 36.4181 92.6175 33.9426 91.2021C33.3072 90.8037 32.6192 90.4924 31.8979 90.277L47.1474 89.7656Z" fill="#FEB9B9"/>
<path d="M43.7671 91.6533C43.7671 91.6533 47.8563 91.6818 48.1023 89.7656C48.3483 87.8495 45.8738 86.8223 43.7671 86.6938C41.6604 86.5652 28.8602 87.5214 28.8602 87.5214C28.8602 87.5214 27.0443 91.1403 35.0957 91.6531L43.7671 91.6533Z" fill="#2F2E41"/>
<path d="M72.438 121.755C72.2593 121.668 72.0803 121.579 71.9041 121.493L71.4236 120.898L65.1216 113.051V113.187C65.079 114.498 64.6253 124.882 61.0858 125.841C57.3089 126.863 52.7525 127.12 50.6755 120.214C48.5984 113.308 44.8034 98.216 40.9061 97.3198L46.7035 92.6518C46.7035 92.6518 50.5419 97.0603 52.1059 101.28C52.0472 101.018 49.3966 88.8567 51.572 86.7048H70.5917C70.5917 86.7048 73.5279 94.9165 75.5403 98.9842C77.1071 102.143 79.4587 109.61 80.9728 114.663C82.4717 119.653 77.2052 124.059 72.438 121.755Z" fill="#3F3D56"/>
<path opacity="0.1" d="M71.8962 88.9976C68.96 90.7039 56.0704 90.0092 51.8771 89.7315L50.7346 89.6502C50.6118 89.6502 50.7532 89.582 50.7532 89.582L50.8707 88.4209L53.9965 80.6208L70.7324 71.0908C70.3933 72.0947 70.2813 73.6306 70.3081 75.3893C70.3854 81.0402 71.8962 88.9976 71.8962 88.9976Z" fill="black"/>
<path d="M71.8962 88.6124C68.96 90.3187 56.0704 89.6241 51.8771 89.3463L50.7346 89.2676L50.545 89.2518L50.7532 89.1994L51.7835 88.9374L53.9962 80.241L70.7322 70.7136C70.3933 71.7175 70.2811 73.2534 70.3079 75.0121C70.3854 80.6576 71.8962 88.6124 71.8962 88.6124Z" fill="#EFEFEF"/>
<path opacity="0.1" d="M70.2973 75.0067C66.894 75.7773 59.4043 78.0382 56.5268 83.4987C54.6077 87.1341 52.9928 88.6935 51.8663 89.3461L50.7238 89.2674C50.7313 89.245 50.7375 89.2222 50.7425 89.1992L51.7727 88.9372L53.9855 80.2408L70.7214 70.7136C70.3864 71.7121 70.2705 73.248 70.2973 75.0067Z" fill="black"/>
<path opacity="0.1" d="M12.373 77.7432L16.2808 80.0445C15.8883 80.1415 15.3867 80.5145 14.8288 81.0535C14.5031 80.1204 12.4596 78.8178 11.5296 78.2623C12.0338 77.9293 12.373 77.7432 12.373 77.7432Z" fill="black"/>
<path opacity="0.1" d="M50.0274 89.417C49.9846 89.4389 49.9358 89.4472 49.888 89.4406C49.8402 89.434 49.7956 89.413 49.7606 89.3804C49.8472 89.4053 49.9371 89.4177 50.0274 89.417Z" fill="black"/>
<path d="M58.8707 50.7575C58.8707 50.7575 55.3527 51.14 52.8784 48.5821C52.8784 48.5821 42.4681 51.5254 38.9425 58.1748C35.4169 64.8242 11.4495 77.8716 11.4495 77.8716C11.4495 77.8716 15.6189 80.1728 15.2264 81.3234L30.9881 72.3701C30.9881 72.3701 36.5933 68.4072 38.1496 67.5109C39.7059 66.6146 48.3113 61.1158 50.1344 76.079C51.9575 91.0423 50.1344 89.2521 50.1344 89.2521C50.1344 89.2521 52.7396 90.1486 56.5165 82.9853C60.2934 75.8219 72.014 74.1603 72.014 74.1603L72.6652 66.617C72.6652 66.617 74.9901 61.6161 73.1991 59.5404C72.6565 58.9258 72.2956 58.177 72.1554 57.3754C71.8592 55.4595 72.1554 52.2671 76.3033 49.6147C82.6854 45.5206 85.1597 42.1973 85.1597 42.1973C85.1597 42.1973 85.2904 39.7651 81.3828 38.6144C77.4752 37.4636 61.5853 31.197 61.5853 31.197L61.0513 33.3724L73.5887 42.061C73.5887 42.061 67.3375 47.0408 62.3781 46.9202C62.3779 46.9202 63.2988 50.6289 58.8707 50.7575Z" fill="#1B919E"/>
<path opacity="0.1" d="M61.2834 44.7998C60.9754 43.7746 60.7347 42.731 60.5628 41.6755L53.6602 43.4662C53.9645 44.7601 53.9102 46.1105 53.5027 47.3767C54.914 47.7465 56.405 47.6992 57.789 47.2409C59.173 46.7825 60.3886 45.9333 61.2834 44.7998Z" fill="black"/>
<path d="M55.5501 47.2402C59.6498 47.2402 62.9732 43.9768 62.9732 39.9512C62.9732 35.9255 59.6498 32.6621 55.5501 32.6621C51.4504 32.6621 48.127 35.9255 48.127 39.9512C48.127 43.9768 51.4504 47.2402 55.5501 47.2402Z" fill="#FEB9B9"/>
<path opacity="0.1" d="M63.6245 98.6533C63.6245 98.6533 67.9219 106.967 66.6193 109.523L63.6245 98.6533Z" fill="black"/>
<path d="M59.4977 23.1165C61.5582 23.3473 63.5149 24.2146 65.5436 24.6891C66.0506 24.8438 66.5903 24.8637 67.1077 24.7466C67.8951 24.5081 68.5357 23.6983 69.3525 23.7218C69.8551 23.7376 70.3 24.0732 70.7138 24.3953C71.3772 24.894 72.0018 25.4407 72.5821 26.0309C73.9807 27.5222 74.8482 29.53 76.124 31.1524C77.3998 32.7748 79.2193 34.6773 81.0317 33.9333C79.7987 38.651 75.9531 41.6023 71.5839 41.8961C69.841 42.0135 68.0552 41.6575 66.3682 42.1581C65.9481 42.3272 65.5043 42.4332 65.052 42.4725C64.0804 42.4725 63.2983 41.5971 62.6923 40.7453C61.2722 38.7429 60.1486 36.4705 58.5497 34.6437C58.0158 34.0383 57.3993 33.4642 56.652 33.3542C55.9046 33.2443 55.2187 33.5954 54.5541 33.9335C53.4571 34.4919 52.3361 35.0683 51.4846 36.0304C50.6331 36.9924 50.0966 38.4127 50.4488 39.6998C50.6384 40.397 51.0711 41.0261 51.0787 41.7546C51.0948 42.9183 50.0485 43.7675 49.8429 44.8998C49.7965 45.3753 49.7795 45.8533 49.7922 46.3309C49.7015 47.8818 48.6674 49.1508 47.5904 50.1286C47.1688 50.506 46.705 50.9149 46.5815 51.4993C46.4987 51.9002 46.5815 52.3218 46.5281 52.7286C46.3706 53.7351 45.3483 54.2462 44.4434 54.3773C43.3862 54.531 42.3064 54.4053 41.3151 54.0131C42.5803 53.4256 43.3598 51.7538 43.0661 50.2572C42.6631 48.1812 40.5385 46.6899 40.7208 44.5776C40.8207 43.9294 41.0186 43.2996 41.3081 42.7089C41.7711 41.5674 42.1076 40.3803 42.3118 39.168C42.4719 38.2323 42.5495 37.2389 42.2503 36.3453C41.9835 35.5326 41.4256 34.8855 40.953 34.1986C40.3125 33.2642 39.8068 32.2472 39.4503 31.1766C39.3211 30.859 39.2719 30.5155 39.3067 30.1753C39.4137 29.7734 39.6417 29.4126 39.9608 29.1399C41.1219 27.9414 42.363 26.6971 43.9193 26.3538C44.6618 26.2327 45.417 26.2045 46.1667 26.2699C47.4707 26.31 48.7759 26.2557 50.0717 26.1073C51.1393 25.9841 52.9435 25.9999 53.8486 25.321C54.6919 24.6865 55.1672 23.8899 56.2054 23.4864C57.2568 23.1037 58.3869 22.9769 59.4991 23.1167L59.4977 23.1165Z" fill="#2F2E41"/>
<path d="M197.428 175.211C203.375 175.211 208.196 174.411 208.196 173.423C208.196 172.436 203.375 171.635 197.428 171.635C191.481 171.635 186.66 172.436 186.66 173.423C186.66 174.411 191.481 175.211 197.428 175.211Z" fill="#1B919E"/>
<path d="M201.881 170.499C202.372 170.105 202.73 169.574 202.907 168.976C203.041 168.374 202.778 167.66 202.189 167.428C201.53 167.18 200.825 167.63 200.293 168.082C199.761 168.534 199.147 169.053 198.448 168.955C198.808 168.636 199.077 168.23 199.23 167.778C199.382 167.326 199.413 166.843 199.319 166.376C199.288 166.182 199.204 166 199.075 165.85C198.711 165.466 198.046 165.629 197.611 165.934C196.218 166.894 195.83 168.754 195.822 170.422C195.68 169.82 195.8 169.192 195.795 168.582C195.79 167.972 195.621 167.266 195.088 166.944C194.759 166.77 194.39 166.685 194.017 166.696C193.39 166.673 192.694 166.736 192.265 167.185C191.73 167.743 191.874 168.679 192.335 169.289C192.796 169.899 193.5 170.291 194.148 170.714C194.666 171.018 195.108 171.432 195.44 171.927C195.48 171.996 195.512 172.069 195.536 172.145H199.449C200.331 171.706 201.149 171.153 201.88 170.5L201.881 170.499Z" fill="#1B919E"/>
<path d="M51.0254 176C54.9501 176 58.1317 175.472 58.1317 174.82C58.1317 174.168 54.9501 173.64 51.0254 173.64C47.1007 173.64 43.9191 174.168 43.9191 174.82C43.9191 175.472 47.1007 176 51.0254 176Z" fill="#EFEFEF"/>
<path d="M53.9644 172.89C54.2883 172.63 54.5242 172.28 54.6412 171.886C54.6927 171.688 54.6739 171.478 54.5877 171.293C54.5016 171.107 54.3534 170.955 54.1676 170.863C53.7328 170.7 53.268 170.997 52.9165 171.296C52.5649 171.594 52.16 171.936 51.6988 171.872C51.9362 171.661 52.1139 171.393 52.2145 171.095C52.3152 170.797 52.3354 170.478 52.2732 170.169C52.2525 170.042 52.1969 169.922 52.1123 169.822C51.873 169.569 51.4336 169.677 51.1457 169.878C50.2268 170.512 49.9705 171.738 49.9652 172.84C49.8716 172.443 49.9511 172.028 49.9475 171.625C49.9439 171.223 49.8326 170.758 49.4808 170.544C49.2638 170.43 49.02 170.374 48.7739 170.381C48.3603 170.366 47.9008 170.407 47.618 170.704C47.2645 171.072 47.36 171.69 47.6639 172.093C47.9678 172.495 48.4326 172.754 48.8605 173.033C49.2025 173.233 49.4943 173.506 49.7141 173.832C49.7406 173.877 49.762 173.925 49.7778 173.976H52.3598C52.942 173.686 53.4817 173.321 53.9644 172.889V172.89Z" fill="#EFEFEF"/>
<path d="M10.8363 176C14.761 176 17.9426 175.472 17.9426 174.82C17.9426 174.168 14.761 173.64 10.8363 173.64C6.91158 173.64 3.72998 174.168 3.72998 174.82C3.72998 175.472 6.91158 176 10.8363 176Z" fill="#EFEFEF"/>
<path d="M13.7753 172.89C14.0992 172.63 14.3351 172.28 14.4521 171.886C14.5037 171.688 14.4848 171.478 14.3987 171.293C14.3125 171.107 14.1643 170.955 13.9785 170.863C13.5437 170.7 13.0789 170.997 12.7274 171.296C12.3758 171.594 11.9709 171.936 11.5097 171.872C11.7471 171.661 11.9248 171.393 12.0254 171.095C12.1261 170.797 12.1463 170.478 12.0841 170.169C12.0634 170.042 12.0078 169.922 11.9233 169.822C11.6839 169.569 11.2446 169.677 10.9567 169.878C10.0377 170.512 9.78137 171.738 9.77611 172.84C9.68254 172.443 9.76198 172.028 9.75839 171.625C9.7548 171.223 9.64353 170.758 9.29173 170.544C9.07474 170.43 8.83092 170.374 8.58478 170.381C8.17124 170.366 7.71176 170.407 7.42889 170.704C7.07542 171.072 7.17089 171.69 7.47483 172.093C7.77876 172.495 8.24351 172.754 8.67141 173.033C9.01345 173.233 9.30522 173.506 9.52506 173.832C9.55154 173.877 9.57289 173.925 9.58872 173.976H12.1707C12.7529 173.686 13.2927 173.321 13.7753 172.889V172.89Z" fill="#EFEFEF"/>
<path d="M216 175.326H0V175.754H216V175.326Z" fill="#2F2E41"/>
<path d="M205.456 11.8728C205.456 11.8728 182.908 10.5369 185.564 26.0517C185.564 26.0517 185.029 28.7943 187.567 30.0381C187.567 30.0381 187.608 28.889 189.881 29.2807C190.691 29.4124 191.513 29.4512 192.331 29.3963C193.436 29.325 194.486 28.9032 195.325 28.1946C195.325 28.1946 201.664 25.6228 204.128 15.4516C204.128 15.4516 205.952 13.2323 205.879 12.6615L202.074 14.2576C202.074 14.2576 203.376 16.9529 202.342 19.1924C202.342 19.1924 202.219 14.3539 201.488 14.4592C201.34 14.4803 199.511 15.3926 199.511 15.3926C199.511 15.3926 201.747 20.0863 200.06 23.4999C200.06 23.4999 200.7 17.7148 198.812 15.7319L196.134 17.2676C196.134 17.2676 198.748 22.1167 196.975 26.0742C196.975 26.0742 197.43 20.005 195.569 17.641L193.143 19.5C193.143 19.5 195.599 24.2779 194.102 27.5603C194.102 27.5603 193.906 20.4971 192.618 19.9634C192.618 19.9634 190.494 21.8041 190.17 22.5561C190.17 22.5561 191.852 26.0272 190.808 27.8574C190.808 27.8574 190.168 23.1504 189.643 23.1241C189.643 23.1241 187.527 26.2427 187.307 28.3833C187.307 28.3833 187.398 25.204 189.131 22.8297C189.131 22.8297 187.085 23.1742 185.891 24.4746C185.891 24.4746 186.22 22.2711 189.653 22.0765C189.653 22.0765 191.402 19.7099 191.868 19.5679C191.868 19.5679 188.456 19.286 186.386 20.1886C186.386 20.1886 188.207 18.1086 192.494 19.0552L194.891 17.1329C194.891 17.1329 190.398 16.5306 188.491 17.1961C188.491 17.1961 190.684 15.3554 195.537 16.6966L198.145 15.166C198.145 15.166 194.313 14.356 192.031 14.6401C192.031 14.6401 194.442 13.3648 198.911 14.748L200.786 13.9255C200.786 13.9255 197.979 13.3838 197.157 13.2971C196.335 13.2104 196.292 12.9895 196.292 12.9895C198.07 12.6984 199.895 12.8978 201.565 13.5655C201.565 13.5655 205.523 12.1175 205.456 11.8728Z" fill="#1B919E"/>
<path d="M174.561 3.65919C174.561 3.65919 164.385 3.0569 165.574 10.0675C165.574 10.0675 165.335 11.3061 166.479 11.8687C166.479 11.8687 166.498 11.3428 167.526 11.5242C167.891 11.5846 168.262 11.6022 168.632 11.5768C169.131 11.5444 169.606 11.3522 169.984 11.0298C169.984 11.0298 172.85 9.8675 173.964 5.27102C173.964 5.27102 174.786 4.26924 174.753 4.01145L173.034 4.73194C173.034 4.73194 173.621 5.94944 173.16 6.9618C173.16 6.9618 173.104 4.77635 172.774 4.82664C172.707 4.82664 171.88 5.24963 171.88 5.24963C171.88 5.24963 172.892 7.37163 172.129 8.91272C172.129 8.91272 172.418 6.29888 171.564 5.40214L170.354 6.10712C170.354 6.10712 171.535 8.2975 170.734 10.0858C170.734 10.0858 170.94 7.34319 170.099 6.27561L169.004 7.11713C169.004 7.11713 170.113 9.27602 169.438 10.7595C169.438 10.7595 169.347 7.56714 168.765 7.32533C168.765 7.32533 167.807 8.15627 167.659 8.49819C167.659 8.49819 168.42 10.0759 167.949 10.8937C167.949 10.8937 167.659 8.76632 167.413 8.75527C167.413 8.75527 166.457 10.1652 166.358 11.1219C166.406 10.2295 166.69 9.36474 167.183 8.61333C166.631 8.71595 166.122 8.97463 165.718 9.35756C165.718 9.35756 165.868 8.36095 167.419 8.27424C167.419 8.27424 168.222 7.20408 168.42 7.13828C168.42 7.13828 166.878 7.01209 165.943 7.42027C165.943 7.42027 166.765 6.48147 168.701 6.90751L169.773 6.03968C169.773 6.03968 167.741 5.77414 166.879 6.06694C166.879 6.06694 167.87 5.236 170.063 5.84087L171.242 5.14929C171.242 5.14929 169.509 4.78387 168.478 4.91429C168.478 4.91429 169.568 4.33832 171.587 4.96129L172.431 4.59047C172.431 4.59047 171.162 4.34584 170.789 4.30636C170.416 4.26688 170.398 4.16701 170.398 4.16701C171.202 4.03569 172.027 4.12674 172.781 4.42997C172.781 4.42997 174.593 3.7687 174.561 3.65919Z" fill="#3F3D56"/>
<path d="M17.631 110.684C17.631 110.684 7.45475 110.082 8.64368 117.092C8.64368 117.092 8.40436 118.331 9.54877 118.894C9.54877 118.894 9.56744 118.368 10.5958 118.549C10.961 118.609 11.3322 118.627 11.7017 118.602C12.2012 118.569 12.6762 118.377 13.054 118.055C13.054 118.055 15.9194 116.892 17.0334 112.296C17.0334 112.296 17.8555 111.294 17.8232 111.036L16.1039 111.757C16.1039 111.757 16.6905 112.974 16.2298 113.987C16.2298 113.987 16.1736 111.801 15.8442 111.852C15.7772 111.852 14.9497 112.275 14.9497 112.275C14.9497 112.275 15.962 114.397 15.1988 115.938C15.1988 115.938 15.4879 113.324 14.6338 112.427L13.4233 113.132C13.4233 113.132 14.6044 115.322 13.8036 117.111C13.8036 117.111 14.0099 114.368 13.1689 113.301L12.0736 114.142C12.0736 114.142 13.1823 116.301 12.5074 117.784C12.5074 117.784 12.4165 114.592 11.8352 114.35C11.8352 114.35 10.8765 115.181 10.7291 115.523C10.7291 115.523 11.4896 117.101 11.0184 117.919C11.0184 117.919 10.7291 115.791 10.4828 115.78C10.4828 115.78 9.52676 117.19 9.42768 118.147C9.47556 117.254 9.75991 116.39 10.2526 115.638C9.70089 115.741 9.19175 116 8.78774 116.382C8.78774 116.382 8.9378 115.386 10.4883 115.299C10.4883 115.299 11.2917 114.229 11.4899 114.163C11.4899 114.163 9.94748 114.037 9.0127 114.445C9.0127 114.445 9.83476 113.506 11.7711 113.932L12.8423 113.065C12.8423 113.065 10.8105 112.799 9.94891 113.092C9.94891 113.092 10.9397 112.261 13.133 112.866L14.3114 112.174C14.3114 112.174 12.5788 111.809 11.5478 111.939C11.5478 111.939 12.6376 111.363 14.657 111.986L15.5006 111.615C15.5006 111.615 14.2322 111.371 13.8589 111.331C13.4855 111.292 13.4678 111.192 13.4678 111.192C14.2717 111.061 15.097 111.152 15.8512 111.455C15.8512 111.455 17.6623 110.794 17.631 110.684Z" fill="#3F3D56"/>
</g>
<defs>
<linearGradient id="paint0_linear" x1="50.1023" y1="90.2847" x2="50.1023" y2="90.2166" gradientUnits="userSpaceOnUse">
<stop stop-color="#808080" stop-opacity="0.251"/>
<stop offset="0.54" stop-color="#808080" stop-opacity="0.122"/>
<stop offset="1" stop-color="#808080" stop-opacity="0.102"/>
</linearGradient>
<clipPath id="clip0">
<rect width="216" height="176" fill="white"/>
</clipPath>
</defs>
</svg>
